<svg width="18" height="18" viewBox="0 0 18 18" fill="none" xmlns="http://www.w3.org/2000/svg">
<path fill-rule="evenodd" clip-rule="evenodd" d="M13.0876 7.89782H14.5824C15.6428 7.89782 16.5023 7.0383 16.5023 5.97786V5.97786C16.5023 4.91742 15.6428 4.05789 14.5824 4.05789H13.9421V3.41763C13.9421 2.35635 13.0818 1.49683 12.0213 1.49683V1.49683C10.9609 1.49683 10.1013 2.35635 10.1013 3.41679V4.91158C10.1013 5.13251 10.0138 5.3451 9.85707 5.50099L5.50026 9.85781C5.34353 10.0145 5.13177 10.1021 4.91085 10.1021H3.41606C2.35562 10.1021 1.49609 10.9616 1.49609 12.022V12.022C1.49609 13.0825 2.35562 13.942 3.41606 13.942H4.05633V14.5823C4.05633 15.6436 4.91668 16.5031 5.97713 16.5031V16.5031C7.03757 16.5031 7.89709 15.6436 7.89709 14.5831V13.0883C7.89709 12.8674 7.98463 12.6548 8.14136 12.4989L12.4982 8.14209C12.6549 7.98536 12.8667 7.89782 13.0876 7.89782Z" stroke="#1C1C1C" stroke-width="1.5" stroke-linecap="round" stroke-linejoin="round"/>
</svg>
