<svg width="20" height="20" viewBox="0 0 20 20" fill="none" xmlns="http://www.w3.org/2000/svg">
<path d="M4.16797 9.16661H8.38547C9.02547 9.16661 9.66547 8.92244 10.153 8.43411C11.1296 7.45744 11.1296 5.87494 10.153 4.89827C9.1763 3.9216 7.5938 3.9216 6.61714 4.89827" stroke="#1C1C1C" stroke-width="1.5" stroke-linecap="round" stroke-linejoin="round"/>
<path d="M2.5 12.5H9.72083C10.2542 12.5 10.7875 12.7033 11.1942 13.11C12.0075 13.9233 12.0075 15.2425 11.1942 16.0567C10.3808 16.8708 9.06167 16.87 8.2475 16.0567" stroke="#1C1C1C" stroke-width="1.5" stroke-linecap="round" stroke-linejoin="round"/>
<path d="M12.5 10.8334H15.5475C16.0475 10.8334 16.5467 10.6426 16.9283 10.2618C17.6908 9.49926 17.6908 8.2626 16.9283 7.5001C16.1658 6.7376 14.9292 6.7376 14.1667 7.5001" stroke="#1C1C1C" stroke-width="1.5" stroke-linecap="round" stroke-linejoin="round"/>
</svg>
