<svg width="93" height="35" viewBox="0 0 93 35" fill="none" xmlns="http://www.w3.org/2000/svg">
<g clip-path="url(#clip0_9_15867)">
<path d="M7.70359 27.278C7.62656 27.278 7.55049 27.2611 7.48078 27.2284C7.41106 27.1958 7.34942 27.1483 7.30029 27.0893C7.25111 27.0302 7.21565 26.9611 7.19637 26.8869C7.17709 26.8126 7.17448 26.735 7.18876 26.6597L8.22187 21.1915C8.24105 21.0881 8.29143 20.9931 8.36625 20.919L21.0175 8.32246C21.0921 8.24809 21.1876 8.19794 21.2914 8.1787L26.7825 7.15016C26.8663 7.1344 26.9526 7.13929 27.0341 7.16436C27.1156 7.18943 27.1897 7.2339 27.25 7.29392C27.3103 7.35393 27.355 7.42771 27.3802 7.50886C27.4054 7.58996 27.4103 7.67599 27.3946 7.75944L26.3614 13.2274C26.3421 13.3307 26.2918 13.4258 26.2171 13.5L13.5671 26.0964C13.4928 26.1709 13.3974 26.2211 13.2937 26.2402L7.80235 27.2689C7.76979 27.275 7.73669 27.2781 7.70359 27.278ZM26.8791 7.48134C26.8674 7.48149 26.8558 7.48254 26.8443 7.48458L21.3532 8.51333C21.317 8.51996 21.2838 8.5374 21.2578 8.56328L8.60875 21.1605C8.58285 21.1863 8.56533 21.2193 8.55841 21.2552L7.5255 26.7236C7.51979 26.7525 7.52139 26.7825 7.53021 26.8107C7.53897 26.8389 7.55465 26.8645 7.57583 26.8852C7.59676 26.9061 7.62251 26.9215 7.6508 26.9302C7.67905 26.9389 7.70905 26.9406 7.73814 26.9351L13.2297 25.9064C13.2657 25.8997 13.2987 25.8823 13.3244 25.8564L25.9744 13.2601C26.0003 13.2343 26.0178 13.2013 26.0245 13.1654L27.0576 7.69723C27.0626 7.67111 27.0617 7.64424 27.055 7.61847C27.0484 7.59275 27.0362 7.56872 27.0192 7.54824C27.0022 7.5277 26.981 7.51115 26.9568 7.49968C26.9328 7.48827 26.9064 7.48219 26.8797 7.48199L26.8791 7.48134Z" fill="#1C1C1C"/>
<path d="M26.878 27.278C26.8454 27.278 26.813 27.275 26.781 27.269L21.2898 26.2402C21.186 26.2212 21.0905 26.171 21.016 26.0965L8.36624 13.5001C8.29152 13.4259 8.24113 13.3308 8.2219 13.2274L7.18874 7.75946C7.17296 7.67601 7.17787 7.58998 7.20301 7.50883C7.2282 7.42767 7.27287 7.3539 7.33322 7.29383C7.39352 7.23382 7.46764 7.18931 7.54912 7.16428C7.63065 7.13926 7.71704 7.13442 7.80082 7.15017L13.2922 8.17872C13.3958 8.19806 13.4911 8.24821 13.5656 8.32248L26.2156 20.9188C26.2903 20.9931 26.3406 21.0883 26.36 21.1917L27.3931 26.6597C27.4073 26.7351 27.4047 26.8126 27.3854 26.8869C27.3661 26.9612 27.3306 27.0302 27.2814 27.0893C27.2322 27.1483 27.1706 27.1958 27.1009 27.2285C27.0311 27.2611 26.9551 27.278 26.878 27.278ZM7.70292 7.48141C7.67627 7.48166 7.64998 7.48769 7.62589 7.49916C7.6018 7.51062 7.58057 7.52717 7.56364 7.54771C7.54671 7.56819 7.53449 7.59217 7.52783 7.61794C7.52122 7.64366 7.52032 7.67053 7.52528 7.69665L8.5582 13.1648C8.56506 13.2007 8.58264 13.2336 8.60853 13.2595L21.2583 25.8558C21.2841 25.8817 21.3173 25.8992 21.3534 25.9057L26.8447 26.9345C26.8738 26.94 26.9039 26.9382 26.9322 26.9295C26.9605 26.9208 26.9862 26.9053 27.0072 26.8845C27.0281 26.8636 27.0437 26.838 27.0524 26.8098C27.0611 26.7816 27.0629 26.7518 27.0574 26.7227L26.0243 21.2548C26.0176 21.2189 26.0001 21.1858 25.9741 21.1599L13.3242 8.56354C13.2984 8.53762 13.2653 8.52023 13.2293 8.5136L7.73797 7.48485C7.7264 7.48276 7.71469 7.48161 7.70292 7.48141Z" fill="#1C1C1C"/>
<path d="M17.2898 31.2335C17.2046 31.2334 17.1206 31.2127 17.0453 31.173C16.97 31.1334 16.9055 31.0761 16.8575 31.006L13.7045 26.4125C13.6447 26.3259 13.6129 26.2232 13.6133 26.1181V8.30412C13.613 8.19904 13.6448 8.09636 13.7045 8.00967L16.8571 3.41576C16.9051 3.34572 16.9696 3.28842 17.0449 3.24881C17.1202 3.20921 17.2041 3.1885 17.2893 3.18848C17.3745 3.18854 17.4584 3.20926 17.5337 3.24887C17.609 3.28847 17.6735 3.34574 17.7216 3.41576L20.8739 8.00967C20.9334 8.09641 20.9652 8.19904 20.9651 8.30412V26.1181C20.9653 26.2232 20.9335 26.3258 20.8739 26.4125L17.7227 31.0053C17.6746 31.0756 17.6101 31.1331 17.5346 31.1728C17.4592 31.2126 17.3751 31.2334 17.2898 31.2335ZM17.2898 3.52853C17.26 3.52821 17.2305 3.53526 17.2041 3.54905C17.1777 3.56283 17.1551 3.58292 17.1385 3.60752L13.9859 8.20143C13.9653 8.23159 13.9543 8.26723 13.9544 8.30367V26.1176C13.9543 26.1542 13.9653 26.1899 13.9859 26.2201L17.1385 30.8138C17.1551 30.8385 17.1776 30.8586 17.2041 30.8725C17.2305 30.8863 17.2599 30.8933 17.2898 30.893C17.3196 30.8934 17.3491 30.8863 17.3755 30.8725C17.4019 30.8587 17.4244 30.8385 17.4411 30.8138L20.5925 26.2188C20.6133 26.1887 20.6244 26.1529 20.6243 26.1164V8.30237C20.6244 8.26589 20.6133 8.2302 20.5925 8.20014L17.4402 3.60623C17.4236 3.58181 17.4011 3.56186 17.3749 3.54819C17.3486 3.53452 17.3194 3.52754 17.2898 3.52789V3.52853Z" fill="#1C1C1C"/>
<path d="M20.9413 26.0001L17.2638 22.3378L13.5861 26.0001V20.8224H8.38672L12.0643 17.1604L8.38672 13.4986H13.5861V8.3208L17.2638 11.9828L20.9413 8.3208V13.4986H26.1403L22.4627 17.1609L26.1403 20.8224H20.9413V26.0001ZM17.5048 22.097L20.5986 25.1777V20.8224H18.7847L17.5048 22.097ZM13.9286 20.8224V25.1777L17.0226 22.097L15.7426 20.8224H13.9286ZM16.2261 20.8224L17.2636 21.8555L18.301 20.8224H16.2261ZM20.942 20.482H25.3157L22.2217 17.4013L20.942 18.6758V20.482ZM19.1282 20.482H20.5999V19.0163L19.1282 20.482ZM15.8842 20.482H18.6445L20.5999 18.5346V15.786L18.6445 13.8387H15.8836L13.928 15.786V18.5348L15.8842 20.482ZM13.9286 20.482H15.4005L13.9286 19.0163V20.482ZM9.213 20.482H13.5867V18.6758L12.3067 17.4013L9.213 20.482ZM20.942 16.1267V18.1941L21.9794 17.1611L20.942 16.1267ZM12.5486 17.1598L13.5861 18.1928V16.1254L12.5486 17.1598ZM20.942 15.6442L22.2217 16.9189L25.3157 13.838H20.9413L20.942 15.6442ZM9.213 13.838L12.3061 16.9207L13.5861 15.6459V13.8387L9.213 13.838ZM19.1282 13.838L20.5999 15.3037V13.838H19.1282ZM13.9286 13.838V15.3037L15.4005 13.838H13.9286ZM18.786 13.4975H20.5999V9.14293L17.5061 12.2236L18.786 13.4975ZM16.2261 13.4975H18.3026L17.2651 12.4645L16.2261 13.4975ZM13.9286 13.4975H15.7426L17.0226 12.223L13.9286 9.14293V13.4975Z" fill="#1C1C1C"/>
<path d="M26.2374 20.8711H8.3479C8.24238 20.8712 8.13927 20.8395 8.05223 20.78L3.43883 17.6408C3.36858 17.5929 3.31111 17.5286 3.2714 17.4536C3.23169 17.3786 3.21094 17.2951 3.21094 17.2103C3.21094 17.1255 3.23169 17.0421 3.2714 16.967C3.31111 16.892 3.36858 16.8278 3.43883 16.7799L8.05223 13.6406C8.13932 13.5814 8.24243 13.5497 8.3479 13.5498H26.2374C26.3429 13.5498 26.446 13.5814 26.5331 13.6406L31.1463 16.7799C31.2166 16.8278 31.2741 16.892 31.3138 16.967C31.3536 17.042 31.3743 17.1255 31.3743 17.2103C31.3743 17.2951 31.3536 17.3787 31.3138 17.4537C31.2741 17.5287 31.2166 17.5929 31.1463 17.6408L26.5331 20.78C26.446 20.8395 26.343 20.8712 26.2374 20.8711ZM8.3479 13.8895C8.31119 13.8895 8.27534 13.9005 8.24504 13.9211L3.63184 17.0603C3.60732 17.0769 3.58725 17.0992 3.57338 17.1253C3.55951 17.1514 3.55226 17.1805 3.55226 17.21C3.55226 17.2395 3.55951 17.2686 3.57338 17.2947C3.58725 17.3208 3.60732 17.3431 3.63184 17.3597L8.24504 20.4989C8.27534 20.5196 8.31119 20.5306 8.3479 20.5306H26.2374C26.2741 20.5306 26.3098 20.5195 26.3401 20.4989L30.9535 17.3597C30.978 17.3431 30.9981 17.3208 31.012 17.2947C31.0258 17.2686 31.033 17.2395 31.033 17.21C31.033 17.1805 31.0258 17.1514 31.012 17.1253C30.9981 17.0992 30.978 17.0769 30.9535 17.0603L26.3401 13.9211C26.3098 13.9005 26.2741 13.8895 26.2374 13.8895H8.3479Z" fill="#1C1C1C"/>
<path d="M18.7094 3.44821L21.2634 7.16639C21.282 7.1935 21.3081 7.21464 21.3385 7.22725C21.369 7.23986 21.4024 7.2434 21.4348 7.23742L25.9088 6.41743C25.9318 6.4132 25.9537 6.40432 25.9731 6.39131C25.9925 6.37825 26.009 6.3614 26.0216 6.34176C26.0341 6.32212 26.0425 6.30009 26.0461 6.27706C26.0497 6.25403 26.0485 6.23056 26.0426 6.20802L24.4557 0.127108C24.4492 0.101707 24.4368 0.0781709 24.4195 0.0583597C24.4022 0.0385488 24.3806 0.023006 24.3562 0.0129482C24.3319 0.00289035 24.3055 -0.00140589 24.2793 0.000403147C24.253 0.00221218 24.2275 0.010076 24.2048 0.0233717L18.7638 3.2063C18.7437 3.21806 18.7262 3.23382 18.7124 3.25261C18.6987 3.27138 18.6889 3.29279 18.6838 3.31547C18.6787 3.33816 18.6783 3.36165 18.6827 3.38448C18.6871 3.40732 18.6962 3.42901 18.7094 3.44821Z" fill="#1C1C1C"/>
<path d="M28.1204 8.6135L27.2844 13.0514C27.278 13.0838 27.2814 13.1174 27.294 13.148C27.3066 13.1786 27.3279 13.2049 27.3553 13.2236L31.1093 15.7996C31.1286 15.8128 31.1505 15.822 31.1735 15.8265C31.1965 15.8309 31.2202 15.8306 31.2431 15.8256C31.266 15.8205 31.2877 15.8108 31.3066 15.797C31.3256 15.7832 31.3414 15.7657 31.3533 15.7456L34.5564 10.3161C34.5698 10.2935 34.5778 10.268 34.5796 10.2418C34.5814 10.2155 34.5771 10.1893 34.567 10.1649C34.5569 10.1407 34.5413 10.119 34.5214 10.1017C34.5015 10.0845 34.4778 10.072 34.4523 10.0654L28.3311 8.4816C28.3086 8.47572 28.285 8.47452 28.2619 8.47806C28.2389 8.4816 28.2168 8.48977 28.1971 8.50214C28.1773 8.5145 28.1603 8.53075 28.1471 8.54994C28.1339 8.56908 28.1249 8.59072 28.1204 8.6135Z" fill="#1C1C1C"/>
<path d="M8.76052 6.34818L13.0899 7.1572C13.1215 7.16303 13.154 7.15969 13.1837 7.14748C13.2133 7.13532 13.2388 7.11483 13.257 7.08856L15.77 3.45687C15.783 3.43817 15.7921 3.41699 15.7965 3.39465C15.8009 3.37231 15.8007 3.3493 15.7957 3.32706C15.7908 3.30482 15.7813 3.28384 15.7678 3.26544C15.7544 3.24704 15.7372 3.23161 15.7175 3.22013L10.4204 0.120921C10.3983 0.107982 10.3735 0.100319 10.3479 0.098544C10.3224 0.0967689 10.2967 0.100927 10.2731 0.110688C10.2493 0.12045 10.2282 0.135554 10.2114 0.154806C10.1946 0.174058 10.1825 0.196935 10.176 0.221643L8.63061 6.1433C8.6247 6.16529 8.62345 6.18822 8.6269 6.2107C8.63036 6.23323 8.63842 6.25476 8.65059 6.274C8.66281 6.29325 8.67884 6.30974 8.69777 6.32251C8.7167 6.33527 8.73803 6.34404 8.76052 6.34818Z" fill="#1C1C1C"/>
<path d="M3.47059 15.8053L7.21318 13.256C7.24043 13.2375 7.26166 13.2114 7.27433 13.1811C7.287 13.1508 7.29051 13.1174 7.2845 13.0851L6.45912 8.62011C6.45486 8.59713 6.4459 8.5753 6.43283 8.55591C6.4197 8.53657 6.40278 8.52007 6.383 8.50756C6.36321 8.495 6.34103 8.48667 6.31789 8.48303C6.2947 8.47939 6.27106 8.48054 6.24838 8.48647L0.127633 10.0703C0.102107 10.0769 0.0784716 10.0894 0.058581 10.1066C0.0386904 10.1239 0.0230831 10.1455 0.0129899 10.1698C0.00289662 10.194 -0.00141066 10.2203 0.000404852 10.2465C0.00222037 10.2727 0.0101098 10.2981 0.0234543 10.3208L3.22701 15.7511C3.23889 15.7711 3.25478 15.7886 3.2737 15.8023C3.29262 15.816 3.31416 15.8257 3.33699 15.8308C3.35983 15.8358 3.38347 15.8362 3.40644 15.8319C3.42943 15.8275 3.45126 15.8185 3.47059 15.8053Z" fill="#1C1C1C"/>
<path d="M6.46363 25.8061L7.29963 21.3684C7.30589 21.3359 7.30253 21.3024 7.28996 21.2718C7.27734 21.2412 7.25611 21.2149 7.22877 21.1962L3.47469 18.6213C3.45538 18.608 3.43354 18.5989 3.41052 18.5944C3.38751 18.59 3.36382 18.5903 3.34092 18.5953C3.31803 18.6004 3.29642 18.6101 3.27746 18.6238C3.25849 18.6375 3.24256 18.655 3.23067 18.6751L0.0273311 24.1047C0.0139883 24.1274 0.00610707 24.1528 0.00430476 24.1791C0.00250246 24.2053 0.00683028 24.2316 0.0169459 24.2559C0.0270614 24.2801 0.0426907 24.3017 0.0626059 24.319C0.0825216 24.3362 0.106179 24.3486 0.131725 24.3553L6.25289 25.9393C6.27553 25.9451 6.29917 25.9463 6.3223 25.9427C6.34544 25.9391 6.36758 25.9307 6.38731 25.9183C6.40709 25.9058 6.42407 25.8894 6.43719 25.8701C6.45031 25.8508 6.45932 25.829 6.46363 25.8061Z" fill="#1C1C1C"/>
<path d="M15.8741 30.9712L13.32 27.253C13.3014 27.226 13.2753 27.2048 13.2449 27.1922C13.2145 27.1796 13.181 27.1761 13.1486 27.182L8.67463 28.002C8.65159 28.0062 8.62971 28.0151 8.61033 28.0281C8.5909 28.0411 8.57442 28.058 8.56185 28.0776C8.54928 28.0973 8.54086 28.1193 8.53721 28.1423C8.5336 28.1653 8.53475 28.1889 8.54061 28.2114L10.1277 34.2925C10.1343 34.3179 10.1467 34.3414 10.164 34.3612C10.1813 34.381 10.2029 34.3965 10.2272 34.4065C10.2516 34.4166 10.2779 34.4209 10.3042 34.419C10.3305 34.4172 10.3559 34.4093 10.3786 34.396L15.8196 31.2131C15.8397 31.2013 15.8573 31.1856 15.871 31.1668C15.8848 31.148 15.8945 31.1266 15.8996 31.1039C15.9047 31.0812 15.9051 31.0578 15.9007 31.0349C15.8963 31.0121 15.8873 30.9904 15.8741 30.9712Z" fill="#1C1C1C"/>
<path d="M25.9146 27.9978L21.4669 27.166C21.4345 27.1599 21.4011 27.1634 21.3706 27.1759C21.3402 27.1885 21.314 27.2095 21.2953 27.2366L18.7136 30.9674C18.7003 30.9866 18.6912 31.0083 18.6867 31.0312C18.6822 31.0541 18.6826 31.0776 18.6876 31.1003C18.6927 31.1231 18.7024 31.1445 18.7162 31.1633C18.73 31.1822 18.7474 31.198 18.7676 31.2098L24.2095 34.3931C24.2322 34.4064 24.2577 34.4143 24.284 34.4161C24.3103 34.418 24.3366 34.4137 24.3609 34.4037C24.3853 34.3936 24.4069 34.3781 24.4242 34.3583C24.4415 34.3385 24.454 34.315 24.4606 34.2896L26.0481 28.2063C26.0538 28.1839 26.0549 28.1605 26.0512 28.1376C26.0475 28.1147 26.0391 28.0928 26.0266 28.0733C26.0141 28.0538 25.9977 28.037 25.9784 28.024C25.9592 28.011 25.9374 28.0021 25.9146 27.9978Z" fill="#1C1C1C"/>
<path d="M31.1099 18.6153L27.3673 21.1644C27.3399 21.1831 27.3185 21.2093 27.3059 21.2399C27.2932 21.2705 27.2898 21.3041 27.296 21.3366L28.1214 25.8014C28.1256 25.8244 28.1346 25.8462 28.1477 25.8655C28.1608 25.8849 28.1778 25.9014 28.1975 25.9139C28.2173 25.9265 28.2395 25.9348 28.2626 25.9385C28.2858 25.9421 28.3095 25.9409 28.3322 25.935L34.4526 24.3512C34.4782 24.3446 34.5019 24.3322 34.5218 24.3149C34.5417 24.2977 34.5573 24.2761 34.5674 24.2518C34.5775 24.2275 34.5819 24.2012 34.5801 24.175C34.5783 24.1488 34.5704 24.1234 34.557 24.1007L31.3535 18.6706C31.3417 18.6505 31.3259 18.6329 31.3071 18.619C31.2882 18.6052 31.2666 18.5954 31.2438 18.5902C31.2209 18.585 31.1973 18.5846 31.1742 18.5889C31.1512 18.5932 31.1293 18.6022 31.1099 18.6153Z" fill="#1C1C1C"/>
<path d="M19.8653 8.03135L17.5094 4.59788C17.485 4.56285 17.4524 4.53423 17.4145 4.51446C17.3765 4.4947 17.3344 4.48438 17.2916 4.48438C17.2487 4.48438 17.2066 4.4947 17.1686 4.51446C17.1307 4.53423 17.0981 4.56285 17.0737 4.59788L14.7178 8.03135C14.4766 8.34364 14.7632 8.62877 14.9257 8.79062L15.9733 9.83382C15.9861 9.84648 16.0016 9.85605 16.0186 9.86179C16.0357 9.86757 16.0538 9.86931 16.0716 9.86697C16.0895 9.86463 16.1065 9.8582 16.1215 9.84823C16.1365 9.83826 16.1489 9.825 16.1579 9.8095L17.19 8.0296C17.2003 8.01185 17.2151 7.99715 17.2329 7.98688C17.2507 7.97666 17.271 7.97128 17.2916 7.97128C17.3121 7.97128 17.3324 7.97666 17.3502 7.98688C17.368 7.99715 17.3829 8.01185 17.3931 8.0296L18.4252 9.8095C18.4342 9.825 18.4466 9.83826 18.4616 9.84823C18.4766 9.8582 18.4936 9.86463 18.5115 9.86697C18.5293 9.86931 18.5474 9.86757 18.5645 9.86179C18.5815 9.85605 18.597 9.84648 18.6098 9.83382L19.6574 8.79062C19.8201 8.62877 20.0883 8.38601 19.8653 8.03135Z" fill="#1C1C1C"/>
<path d="M8.9525 21.8881L8.18001 25.9743C8.17239 26.0163 8.1751 26.0594 8.18787 26.1001C8.20064 26.1408 8.22313 26.1778 8.25343 26.208C8.28367 26.2381 8.32083 26.2606 8.3617 26.2733C8.40252 26.2861 8.44589 26.2888 8.488 26.2812L12.5924 25.5127C12.9847 25.4617 12.9845 25.0583 12.9845 24.8293V23.354C12.9845 23.336 12.9804 23.3184 12.9724 23.3023C12.9645 23.2862 12.953 23.2722 12.9387 23.2613C12.9244 23.2504 12.9078 23.2429 12.8901 23.2394C12.8725 23.2359 12.8542 23.2365 12.8369 23.2412L10.8433 23.7732C10.8234 23.7785 10.8024 23.7785 10.7825 23.7732C10.7626 23.7679 10.7444 23.7575 10.7299 23.743C10.7153 23.7285 10.7049 23.7104 10.6995 23.6906C10.6942 23.6708 10.6942 23.6499 10.6995 23.6301L11.2336 21.6447C11.2383 21.6274 11.2389 21.6092 11.2354 21.5916C11.2319 21.5741 11.2244 21.5575 11.2134 21.5433C11.2025 21.5291 11.1884 21.5176 11.1722 21.5097C11.1561 21.5017 11.1383 21.4977 11.1204 21.4977H9.63871C9.40984 21.4977 9.04741 21.4807 8.9525 21.8881Z" fill="#1C1C1C"/>
<path d="M21.9899 25.5126L26.0935 26.2819C26.1356 26.2895 26.179 26.2868 26.2198 26.2741C26.2607 26.2613 26.2978 26.2389 26.3281 26.2087C26.3583 26.1786 26.3808 26.1416 26.3936 26.1009C26.4064 26.0602 26.4091 26.017 26.4015 25.975L25.6299 21.888C25.5786 21.4974 25.1736 21.4976 24.9436 21.4976H23.462C23.444 21.4976 23.4263 21.5016 23.4101 21.5096C23.394 21.5175 23.3799 21.529 23.3689 21.5432C23.3579 21.5574 23.3504 21.574 23.347 21.5915C23.3435 21.6091 23.3441 21.6273 23.3487 21.6446L23.8828 23.6298C23.8882 23.6496 23.8883 23.6705 23.8829 23.6903C23.8777 23.7102 23.8672 23.7283 23.8526 23.7428C23.838 23.7573 23.8198 23.7678 23.7999 23.773C23.78 23.7783 23.759 23.7783 23.7391 23.7729L21.7454 23.2411C21.7281 23.2364 21.7099 23.2358 21.6922 23.2393C21.6746 23.2428 21.658 23.2502 21.6437 23.2612C21.6294 23.2721 21.6178 23.2861 21.6099 23.3022C21.602 23.3182 21.5978 23.3359 21.5979 23.3539V24.8292C21.5974 25.0582 21.5803 25.4183 21.9899 25.5126Z" fill="#1C1C1C"/>
<path d="M25.6299 12.5309L26.4024 8.44472C26.41 8.40275 26.4073 8.35963 26.3945 8.3189C26.3818 8.27823 26.3593 8.24124 26.329 8.21108C26.2987 8.18093 26.2616 8.15854 26.2207 8.14583C26.1798 8.13307 26.1365 8.13043 26.0944 8.13801L21.99 8.90635C21.5977 8.9574 21.5977 9.36071 21.5977 9.58971V11.065C21.5977 11.083 21.6019 11.1007 21.6098 11.1167C21.6178 11.1328 21.6294 11.1468 21.6437 11.1578C21.658 11.1687 21.6746 11.1761 21.6923 11.1796C21.7099 11.1831 21.7281 11.1825 21.7455 11.1778L23.7392 10.646C23.759 10.6407 23.78 10.6407 23.7999 10.646C23.8198 10.6513 23.8379 10.6618 23.8525 10.6763C23.8671 10.6908 23.8775 10.7088 23.8829 10.7287C23.8882 10.7485 23.8882 10.7693 23.8829 10.7891L23.3486 12.7744C23.344 12.7916 23.3434 12.8098 23.3469 12.8274C23.3504 12.845 23.3579 12.8615 23.3689 12.8757C23.3799 12.8899 23.394 12.9014 23.4102 12.9093C23.4263 12.9173 23.4441 12.9214 23.4621 12.9214H24.9437C25.1736 12.9224 25.5353 12.9398 25.6299 12.5309Z" fill="#1C1C1C"/>
<path d="M8.07371 14.6473L4.6257 16.9932C4.59053 17.0175 4.56178 17.0499 4.54194 17.0877C4.52209 17.1255 4.51172 17.1675 4.51172 17.2101C4.51172 17.2528 4.52209 17.2948 4.54194 17.3326C4.56178 17.3703 4.59053 17.4028 4.6257 17.4271L8.07371 19.773C8.38712 20.0132 8.67348 19.7281 8.83624 19.566L9.88383 18.5228C9.89655 18.5101 9.90617 18.4947 9.91193 18.4777C9.91769 18.4607 9.91949 18.4427 9.91714 18.4249C9.91478 18.4071 9.90832 18.3902 9.89831 18.3753C9.88834 18.3604 9.87502 18.3479 9.85939 18.339L8.07196 17.3113C8.05418 17.3011 8.03936 17.2863 8.02909 17.2685C8.01882 17.2508 8.01337 17.2307 8.01337 17.2101C8.01337 17.1896 8.01882 17.1695 8.02909 17.1518C8.03936 17.134 8.05418 17.1193 8.07196 17.109L9.85939 16.0813C9.87502 16.0724 9.88834 16.06 9.89831 16.0451C9.90832 16.0301 9.91478 16.0131 9.91714 15.9954C9.91949 15.9777 9.91769 15.9596 9.91193 15.9426C9.90617 15.9256 9.89655 15.9102 9.88383 15.8975L8.83624 14.8549C8.67348 14.6925 8.42989 14.4258 8.07371 14.6473Z" fill="#1C1C1C"/>
<path d="M14.7175 26.3891L17.0734 29.8224C17.0978 29.8574 17.1304 29.8861 17.1683 29.9058C17.2062 29.9257 17.2484 29.936 17.2913 29.936C17.3341 29.936 17.3763 29.9257 17.4143 29.9058C17.4522 29.8861 17.4847 29.8574 17.5091 29.8224L19.865 26.3891C20.1062 26.0768 19.8196 25.7917 19.6571 25.6298L18.6095 24.5864C18.5967 24.5737 18.5812 24.5642 18.5642 24.5584C18.5471 24.5527 18.529 24.5509 18.5112 24.5533C18.4934 24.5556 18.4763 24.562 18.4613 24.572C18.4463 24.582 18.4339 24.5952 18.4249 24.6107L17.3928 26.3906C17.3826 26.4084 17.3677 26.4231 17.3499 26.4333C17.3321 26.4436 17.3118 26.4489 17.2913 26.4489C17.2707 26.4489 17.2504 26.4436 17.2326 26.4333C17.2148 26.4231 17.2 26.4084 17.1897 26.3906L16.1576 24.6107C16.1487 24.5952 16.1362 24.582 16.1212 24.572C16.1063 24.562 16.0892 24.5556 16.0713 24.5533C16.0535 24.5509 16.0354 24.5527 16.0183 24.5584C16.0013 24.5642 15.9858 24.5737 15.973 24.5864L14.9254 25.6298C14.7627 25.7917 14.4951 26.0342 14.7175 26.3891Z" fill="#1C1C1C"/>
<path d="M26.5085 19.7728L29.9565 17.4269C29.9917 17.4026 30.0204 17.3702 30.0403 17.3324C30.0601 17.2946 30.0705 17.2526 30.0705 17.21C30.0705 17.1673 30.0601 17.1253 30.0403 17.0876C30.0204 17.0498 29.9917 17.0173 29.9565 16.9931L26.5085 14.6471C26.1951 14.4069 25.9087 14.6923 25.746 14.8542L24.6984 15.8973C24.6857 15.91 24.676 15.9254 24.6703 15.9424C24.6645 15.9594 24.6627 15.9775 24.6651 15.9952C24.6674 16.013 24.6739 16.03 24.6839 16.0449C24.6939 16.0598 24.7072 16.0722 24.7228 16.0811L26.5102 17.1088C26.5281 17.1191 26.5429 17.1338 26.5533 17.1516C26.5636 17.1694 26.569 17.1895 26.569 17.2101C26.569 17.2306 26.5636 17.2508 26.5533 17.2686C26.5429 17.2864 26.5281 17.3011 26.5102 17.3113L24.7228 18.3388C24.7072 18.3477 24.6939 18.3602 24.6839 18.3751C24.6739 18.39 24.6674 18.407 24.6651 18.4247C24.6627 18.4425 24.6645 18.4606 24.6703 18.4776C24.676 18.4945 24.6857 18.51 24.6984 18.5226L25.746 19.5658C25.9087 19.7279 26.1523 19.9943 26.5085 19.7728Z" fill="#1C1C1C"/>
<path d="M12.6464 8.92204L8.54285 8.1526C8.50073 8.14508 8.45736 8.14777 8.4165 8.16053C8.37563 8.17329 8.33847 8.19567 8.30822 8.22583C8.27792 8.25599 8.25544 8.29297 8.24262 8.3337C8.2298 8.37437 8.22709 8.41754 8.23465 8.45951L9.0065 12.5466C9.05768 12.937 9.46274 12.937 9.69271 12.937H11.1743C11.1923 12.937 11.21 12.9329 11.2261 12.9249C11.2423 12.917 11.2563 12.9055 11.2673 12.8913C11.2782 12.8771 11.2858 12.8606 11.2893 12.843C11.2928 12.8254 11.2922 12.8073 11.2876 12.79L10.7533 10.8046C10.748 10.7848 10.748 10.7639 10.7533 10.7441C10.7586 10.7243 10.7691 10.7062 10.7837 10.6917C10.7982 10.6772 10.8164 10.6668 10.8363 10.6615C10.8562 10.6561 10.8771 10.6561 10.897 10.6615L12.8909 11.1935C12.9082 11.1982 12.9265 11.1988 12.9441 11.1953C12.9618 11.1918 12.9784 11.1843 12.9926 11.1734C13.0069 11.1625 13.0185 11.1485 13.0264 11.1324C13.0344 11.1163 13.0385 11.0986 13.0385 11.0807V9.60535C13.0385 9.37635 13.0555 9.01631 12.6464 8.92204Z" fill="#1C1C1C"/>
<path d="M15.7884 12.3638L15.5397 12.6116C15.4506 12.7002 15.3299 12.75 15.204 12.7501H14.8494C14.7732 12.7501 14.7003 12.7199 14.6465 12.6663C14.5927 12.6128 14.5625 12.5401 14.5625 12.4643V11.0034C14.5626 10.9818 14.569 10.9606 14.5811 10.9427C14.5932 10.9247 14.6103 10.9107 14.6304 10.9024C14.6504 10.8941 14.6725 10.8919 14.6939 10.8961C14.7151 10.9003 14.7347 10.9107 14.7502 10.9259L15.7876 11.959C15.8144 11.9855 15.8358 12.0169 15.8504 12.0516C15.865 12.0864 15.8725 12.1236 15.8726 12.1612C15.8727 12.1989 15.8653 12.2361 15.8508 12.2709C15.8364 12.3057 15.8152 12.3373 15.7884 12.3638Z" fill="#1C1C1C"/>
<path d="M19.663 12.7273H19.3109C19.1851 12.7272 19.0645 12.6774 18.9755 12.5889L18.7248 12.3393C18.6981 12.3127 18.6769 12.2812 18.6625 12.2465C18.648 12.2118 18.6406 12.1747 18.6406 12.1372C18.6406 12.0996 18.648 12.0625 18.6625 12.0278C18.6769 11.9931 18.6981 11.9616 18.7248 11.935L19.7622 10.902C19.7776 10.8868 19.7972 10.8764 19.8185 10.8722C19.8398 10.868 19.8619 10.8702 19.8819 10.8785C19.902 10.8868 19.9192 10.9008 19.9313 10.9188C19.9433 10.9367 19.9498 10.9578 19.9498 10.9795V12.4415C19.9498 12.479 19.9425 12.5162 19.928 12.5509C19.9136 12.5855 19.8925 12.617 19.8659 12.6436C19.8393 12.6701 19.8076 12.6912 19.7728 12.7055C19.738 12.7199 19.7007 12.7273 19.663 12.7273Z" fill="#1C1C1C"/>
<path d="M22.1456 15.7124L21.8968 15.4647C21.8079 15.376 21.7579 15.2558 21.7578 15.1304V14.7773C21.7578 14.7015 21.7881 14.6289 21.8418 14.5753C21.8956 14.5218 21.9686 14.4917 22.0446 14.4917H23.512C23.5337 14.4916 23.555 14.498 23.5731 14.5101C23.5912 14.5221 23.6052 14.5392 23.6136 14.5592C23.6219 14.5792 23.624 14.6013 23.6198 14.6225C23.6155 14.6437 23.605 14.6632 23.5896 14.6785L22.5521 15.7116C22.5255 15.7382 22.4939 15.7594 22.459 15.7739C22.4242 15.7884 22.3868 15.7959 22.349 15.7959C22.3113 15.796 22.2738 15.7887 22.2389 15.7744C22.204 15.76 22.1723 15.739 22.1456 15.7124Z" fill="#1C1C1C"/>
<path d="M21.7812 19.5708V19.2202C21.7814 19.0949 21.8313 18.9747 21.9202 18.886L22.171 18.6363C22.2248 18.5828 22.2977 18.5527 22.3738 18.5527C22.4499 18.5527 22.5228 18.5828 22.5766 18.6363L23.6141 19.6694C23.6295 19.6847 23.64 19.7042 23.6443 19.7254C23.6486 19.7467 23.6464 19.7688 23.638 19.7887C23.6297 19.8088 23.6156 19.8259 23.5975 19.8379C23.5793 19.8499 23.5581 19.8563 23.5363 19.8562H22.0681C21.992 19.8562 21.9191 19.8261 21.8653 19.7726C21.8115 19.7191 21.7813 19.6465 21.7812 19.5708Z" fill="#1C1C1C"/>
<path d="M18.7832 22.0438L19.0322 21.7961C19.0762 21.7522 19.1286 21.7174 19.1862 21.6937C19.2437 21.6699 19.3055 21.6577 19.3678 21.6577H19.7223C19.7983 21.6577 19.8713 21.6878 19.9251 21.7414C19.9789 21.7949 20.0091 21.8676 20.0091 21.9433V23.4043C20.0091 23.4259 20.0028 23.4471 19.9907 23.4652C19.9786 23.4832 19.9615 23.4973 19.9414 23.5056C19.9212 23.5139 19.8991 23.516 19.8778 23.5118C19.8564 23.5075 19.8369 23.4971 19.8215 23.4817L18.7841 22.4486C18.7572 22.4222 18.7359 22.3907 18.7214 22.356C18.7068 22.3212 18.6993 22.284 18.6992 22.2464C18.6991 22.2088 18.7065 22.1715 18.7209 22.1368C18.7353 22.102 18.7565 22.0705 18.7832 22.0438Z" fill="#1C1C1C"/>
<path d="M14.9081 21.6797H15.26C15.3859 21.6798 15.5066 21.7297 15.5957 21.8183L15.8464 22.0679C15.9001 22.1216 15.9303 22.1942 15.9303 22.27C15.9303 22.3457 15.9001 22.4184 15.8464 22.472L14.8089 23.505C14.7935 23.5203 14.7739 23.5308 14.7526 23.535C14.7312 23.5392 14.7091 23.537 14.689 23.5288C14.6689 23.5205 14.6517 23.5064 14.6396 23.4884C14.6276 23.4704 14.6211 23.4492 14.6211 23.4275V21.9655C14.6211 21.8897 14.6514 21.8171 14.7052 21.7635C14.759 21.7099 14.832 21.6798 14.9081 21.6797Z" fill="#1C1C1C"/>
<path d="M12.4252 18.6944L12.6742 18.9424C12.7631 19.0311 12.8131 19.1511 12.8132 19.2764V19.6296C12.8132 19.7053 12.7829 19.778 12.7291 19.8315C12.6752 19.8851 12.6023 19.9152 12.5261 19.9152H11.059C11.0373 19.9151 11.0161 19.9087 10.998 19.8967C10.98 19.8847 10.9659 19.8676 10.9576 19.8476C10.9493 19.8277 10.9471 19.8057 10.9513 19.7844C10.9555 19.7632 10.9659 19.7437 10.9812 19.7284L12.0187 18.6953C12.0453 18.6686 12.0769 18.6474 12.1118 18.6329C12.1466 18.6184 12.184 18.6109 12.2217 18.6108C12.2596 18.6108 12.297 18.6181 12.3319 18.6325C12.3668 18.6468 12.3985 18.6679 12.4252 18.6944Z" fill="#1C1C1C"/>
<path d="M12.7909 14.8356V15.186C12.7908 15.3113 12.7408 15.4315 12.6519 15.5202L12.4012 15.7699C12.3473 15.8234 12.2744 15.8535 12.1983 15.8535C12.1222 15.8535 12.0493 15.8234 11.9955 15.7699L10.958 14.7368C10.9426 14.7215 10.9322 14.702 10.9279 14.6807C10.9236 14.6595 10.9258 14.6374 10.9342 14.6174C10.9425 14.5974 10.9566 14.5803 10.9747 14.5682C10.9928 14.5562 11.014 14.5498 11.0358 14.5498H12.5042C12.5803 14.5499 12.6532 14.5801 12.7069 14.6336C12.7607 14.6872 12.7909 14.7599 12.7909 14.8356Z" fill="#1C1C1C"/>
<path d="M16.2987 18.7212H18.2826V18.1983H18.8078V16.2227H18.2826V15.6997H16.2987V16.2227H15.7734V18.1983H16.2987V18.7212Z" fill="#1C1C1C"/>
<path d="M57.3615 15.8806L56.6323 14.158H53.3079L52.5787 15.8806H50.8359L54.3832 7.67334H55.6437L59.0918 15.8806H57.3615ZM53.8142 12.8537H56.1625L54.9886 9.90051L53.8142 12.8537Z" fill="#1C1C1C"/>
<path d="M64.0802 9.05147H62.2262V15.8806H60.6196V9.05147H58.7656V7.67334H64.0802V9.05147Z" fill="#1C1C1C"/>
<path d="M65.1016 7.67334H66.7082V12.829C66.7082 13.3459 66.8399 13.7519 67.1038 14.0472C67.4168 14.4246 67.8535 14.6133 68.4139 14.6133C68.9743 14.6133 69.411 14.4246 69.724 14.0472C69.9874 13.7519 70.1192 13.3459 70.1192 12.829V7.67334H71.7262V12.6937C71.7262 13.6289 71.5199 14.359 71.1082 14.8839C70.8198 15.2613 70.4327 15.5525 69.9464 15.7576C69.4686 15.9627 68.9578 16.0652 68.4139 16.0652C67.87 16.0652 67.3552 15.9627 66.8689 15.7576C66.3911 15.5525 66.008 15.2613 65.7196 14.8839C65.3074 14.359 65.1016 13.6289 65.1016 12.6937V7.67334Z" fill="#1C1C1C"/>
<path d="M73.4375 7.67334H75.8224C76.7288 7.67334 77.4294 7.87841 77.9237 8.2886C78.4676 8.74795 78.7396 9.36321 78.7396 10.1343C78.7396 10.9874 78.418 11.6314 77.7755 12.0662C77.5281 12.2385 77.2276 12.3574 76.873 12.423L79.4437 15.8806H77.4415L75.2419 12.5829H75.0441V15.8806H73.4375V7.67334ZM75.0441 8.97764V11.4509H75.5013C75.633 11.4509 75.7608 11.4427 75.8845 11.4263C76.0162 11.4017 76.1849 11.3566 76.3913 11.291C76.5971 11.2171 76.7619 11.09 76.8856 10.9095C77.0173 10.7209 77.0834 10.4871 77.0834 10.2081C77.0834 9.92923 77.0213 9.69953 76.8976 9.51908C76.7744 9.33041 76.6096 9.20325 76.4033 9.1376C76.1975 9.06378 76.0327 9.01867 75.909 9.00227C75.7853 8.98587 75.6576 8.97764 75.5259 8.97764H75.0441Z" fill="#1C1C1C"/>
<path d="M86.1427 15.8806L85.4135 14.158H82.0892L81.36 15.8806H79.6172L83.1644 7.67334H84.4249L87.873 15.8806H86.1427ZM82.596 12.8537H84.9443L83.7699 9.90051L82.596 12.8537Z" fill="#1C1C1C"/>
<path d="M88.8359 7.67334H90.443V14.5025H92.9886V15.8806H88.8359V7.67334Z" fill="#1C1C1C"/>
<path d="M44.6536 15.8806H43.0469V7.67334H44.1592L48.2607 13.149V7.67334H49.8674V15.8806H48.7551L44.6536 10.3927V15.8806Z" fill="#1C1C1C"/>
<path d="M58.0127 18.4756V19.8847H54.4965V21.7594H57.8855V23.1685H54.4965V25.4583H58.0127V26.8675H52.8398V18.4756H58.0127Z" fill="#1C1C1C"/>
<path d="M66.8607 26.8675L66.109 25.1061H62.6814L61.9297 26.8675H60.1328L63.7897 18.4756H65.0893L68.6445 26.8675H66.8607ZM63.2038 23.7724H65.6247L64.4142 20.7529L63.2038 23.7724Z" fill="#1C1C1C"/>
<path d="M71.0898 18.4756H72.7465V25.4583H75.8295V26.8675H71.0898V18.4756Z" fill="#1C1C1C"/>
<path d="M83.7044 19.8847H81.3346V26.8675H79.6784V19.8847H77.3086V18.4756H83.7044V19.8847Z" fill="#1C1C1C"/>
<path d="M87.6936 18.4756V21.7216H91.4026V18.4756H92.9897V26.8675H91.4026V23.1308H87.6936V26.8675H86.1406V18.4756H87.6936Z" fill="#1C1C1C"/>
<path d="M44.6 18.3843V21.6303H48.3086V18.3843H49.8961V26.7761H48.3086V23.0394H44.6V26.7761H43.0469V18.3843H44.6Z" fill="#1C1C1C"/>
<path d="M45.0482 29.8409L44.9255 30.0935C44.8277 29.9963 44.8442 30.0039 44.7293 29.9504C44.59 29.8871 44.4495 29.8555 44.3078 29.8555C44.0268 29.8555 43.7922 29.954 43.604 30.151C43.4183 30.3456 43.3254 30.5852 43.3254 30.8698C43.3254 31.1762 43.4268 31.4182 43.6297 31.5958C43.8349 31.7733 44.0622 31.8621 44.3114 31.8621C44.4678 31.8621 44.6194 31.8244 44.7659 31.749C44.8686 31.6979 44.9627 31.6298 45.0482 31.5447V31.8804C44.8258 32.0384 44.5802 32.1175 44.3114 32.1175C43.9498 32.1175 43.648 31.9971 43.4061 31.7563C43.1666 31.5155 43.0469 31.2188 43.0469 30.8661C43.0469 30.5037 43.1678 30.2021 43.4097 29.9613C43.6541 29.7205 43.9595 29.6001 44.3261 29.6001C44.5949 29.6001 44.8356 29.6804 45.0482 29.8409Z" fill="#1C1C1C"/>
<path d="M50.2477 31.7563C50.0035 31.9971 49.7029 32.1175 49.3461 32.1175C48.9893 32.1175 48.6876 31.9971 48.4408 31.7563C48.1964 31.5155 48.0742 31.2163 48.0742 30.8588C48.0742 30.4988 48.1976 30.1997 48.4444 29.9613C48.6913 29.7205 48.9918 29.6001 49.3461 29.6001C49.7004 29.6001 50.001 29.7205 50.2477 29.9613C50.4946 30.1997 50.6178 30.4988 50.6178 30.8588C50.6178 31.2163 50.4946 31.5155 50.2477 31.7563ZM50.0499 30.1474C49.8568 29.9528 49.6223 29.8555 49.3461 29.8555C49.07 29.8555 48.8354 29.9528 48.6424 30.1474C48.4493 30.3419 48.3528 30.5791 48.3528 30.8588C48.3528 31.1385 48.4493 31.3757 48.6424 31.5703C48.8354 31.7648 49.07 31.8621 49.3461 31.8621C49.6223 31.8621 49.8568 31.7648 50.0499 31.5703C50.2427 31.3757 50.3394 31.1385 50.3394 30.8588C50.3394 30.5791 50.2427 30.3419 50.0499 30.1474Z" fill="#1C1C1C"/>
<path d="M53.7734 29.6396H54.1656C54.4295 29.6396 54.6273 29.6847 54.7595 29.7746C54.9378 29.8938 55.027 30.0738 55.027 30.3146C55.027 30.5019 54.9694 30.6576 54.8547 30.7816C54.7425 30.9057 54.5943 30.9738 54.411 30.9859L55.1882 32.0731H54.8582L54.1145 31.0078H54.0444V32.0731H53.7734V29.6396ZM54.0444 29.8951V30.767H54.2166C54.3854 30.767 54.5176 30.7281 54.6128 30.6503C54.7079 30.5724 54.7555 30.463 54.7555 30.3219C54.7555 30.1565 54.6909 30.0373 54.5612 29.9644C54.4786 29.9181 54.3609 29.8951 54.2096 29.8951H54.0444Z" fill="#1C1C1C"/>
<path d="M58.2734 29.6396H58.7172C58.9956 29.6396 59.2009 29.6968 59.3326 29.8111C59.4819 29.9376 59.5565 30.1115 59.5565 30.3329C59.5565 30.5226 59.4914 30.6843 59.3622 30.8181C59.235 30.9494 59.0422 31.0151 58.7828 31.0151H58.5449V32.0731H58.2734V29.6396ZM58.5449 29.8951V30.7597H58.7682C58.9295 30.7597 59.0552 30.7208 59.1458 30.643C59.2385 30.5652 59.2851 30.4569 59.2851 30.3183C59.2851 30.0361 59.1053 29.8951 58.7462 29.8951H58.5449Z" fill="#1C1C1C"/>
<path d="M64.6422 31.7563C64.3979 31.9971 64.0974 32.1175 63.7408 32.1175C63.3837 32.1175 63.0822 31.9971 62.8353 31.7563C62.5909 31.5155 62.4688 31.2163 62.4688 30.8588C62.4688 30.4988 62.5919 30.1997 62.8388 29.9613C63.0857 29.7205 63.3862 29.6001 63.7408 29.6001C64.0949 29.6001 64.3954 29.7205 64.6422 29.9613C64.8891 30.1997 65.0123 30.4988 65.0123 30.8588C65.0123 31.2163 64.8891 31.5155 64.6422 31.7563ZM64.4444 30.1474C64.2511 29.9528 64.0167 29.8555 63.7408 29.8555C63.4644 29.8555 63.23 29.9528 63.0367 30.1474C62.8439 30.3419 62.7472 30.5791 62.7472 30.8588C62.7472 31.1385 62.8439 31.3757 63.0367 31.5703C63.23 31.7648 63.4644 31.8621 63.7408 31.8621C64.0167 31.8621 64.2511 31.7648 64.4444 31.5703C64.6372 31.3757 64.7339 31.1385 64.7339 30.8588C64.7339 30.5791 64.6372 30.3419 64.4444 30.1474Z" fill="#1C1C1C"/>
<path d="M68.168 29.6396H68.5601C68.824 29.6396 69.0219 29.6847 69.1536 29.7746C69.3324 29.8938 69.4215 30.0738 69.4215 30.3146C69.4215 30.5019 69.3639 30.6576 69.2492 30.7816C69.1365 30.9057 68.9888 30.9738 68.8055 30.9859L69.5828 32.0731H69.2527L68.5085 31.0078H68.4389V32.0731H68.168V29.6396ZM68.4389 29.8951V30.767H68.6112C68.78 30.767 68.9117 30.7281 69.0073 30.6503C69.1025 30.5724 69.1501 30.463 69.1501 30.3219C69.1501 30.1565 69.0855 30.0373 68.9557 29.9644C68.8726 29.9181 68.7554 29.8951 68.6042 29.8951H68.4389Z" fill="#1C1C1C"/>
<path d="M74.2995 32.0734L74.0135 31.3875H72.9729L72.6794 32.0734H72.3789L73.4536 29.6372H73.5037H73.5533L74.6 32.0734H74.2995ZM73.079 31.1321H73.9074L73.4967 30.158L73.079 31.1321Z" fill="#1C1C1C"/>
<path d="M78.6346 29.8951H78.0412V32.0731H77.7697V29.8951H77.1758V29.6396H78.6346V29.8951Z" fill="#1C1C1C"/>
<path d="M81.6562 29.6396H81.9277V32.0731H81.6562V29.6396Z" fill="#1C1C1C"/>
<path d="M87.2594 31.7563C87.015 31.9971 86.7146 32.1175 86.358 32.1175C86.0014 32.1175 85.6994 31.9971 85.4525 31.7563C85.2081 31.5155 85.0859 31.2163 85.0859 30.8588C85.0859 30.4988 85.2096 30.1997 85.456 29.9613C85.7029 29.7205 86.0034 29.6001 86.358 29.6001C86.7121 29.6001 87.013 29.7205 87.2594 29.9613C87.5063 30.1997 87.63 30.4988 87.63 30.8588C87.63 31.2163 87.5063 31.5155 87.2594 31.7563ZM87.0616 30.1474C86.8688 29.9528 86.6339 29.8555 86.358 29.8555C86.082 29.8555 85.8472 29.9528 85.6544 30.1474C85.461 30.3419 85.3644 30.5791 85.3644 30.8588C85.3644 31.1385 85.461 31.3757 85.6544 31.5703C85.8472 31.7648 86.082 31.8621 86.358 31.8621C86.6339 31.8621 86.8688 31.7648 87.0616 31.5703C87.2549 31.3757 87.3511 31.1385 87.3511 30.8588C87.3511 30.5791 87.2549 30.3419 87.0616 30.1474Z" fill="#1C1C1C"/>
<path d="M91.0566 32.0731H90.7852V29.6396H91.0566L92.6912 31.6161V29.6396H92.9627V32.0731H92.6912L91.0566 30.093V32.0731Z" fill="#1C1C1C"/>
</g>
<defs>
<clipPath id="clip0_9_15867">
<rect width="93" height="34.4444" fill="white"/>
</clipPath>
</defs>
</svg>
