<svg width="157" height="58" viewBox="0 0 157 58" fill="none" xmlns="http://www.w3.org/2000/svg">
<g clip-path="url(#clip0_112_7467)">
<path d="M13.0016 45.9313C12.8716 45.9313 12.7432 45.9029 12.6255 45.8479C12.5078 45.793 12.4037 45.7129 12.3208 45.6135C12.2378 45.5141 12.1779 45.3977 12.1454 45.2727C12.1128 45.1477 12.1084 45.0171 12.1325 44.8902L13.8766 35.6824C13.909 35.5084 13.994 35.3483 14.1203 35.2236L35.4779 14.0127C35.6038 13.8874 35.765 13.803 35.9401 13.7706L45.21 12.0387C45.3516 12.0121 45.4974 12.0204 45.6349 12.0626C45.7724 12.1048 45.8976 12.1797 45.9993 12.2807C46.1011 12.3818 46.1765 12.506 46.2191 12.6427C46.2617 12.7792 46.27 12.9241 46.2434 13.0646L44.4993 22.2719C44.4667 22.4459 44.3816 22.606 44.2556 22.731L22.9003 43.9416C22.7748 44.067 22.6137 44.1516 22.4387 44.1838L13.1683 45.9161C13.1134 45.9264 13.0575 45.9314 13.0016 45.9313ZM45.3732 12.5963C45.3535 12.5966 45.3338 12.5983 45.3145 12.6018L36.0444 14.3341C35.9835 14.3452 35.9273 14.3746 35.8836 14.4182L14.5297 35.6302C14.486 35.6738 14.4564 35.7294 14.4447 35.7897L12.701 44.9978C12.6913 45.0465 12.694 45.097 12.7089 45.1445C12.7237 45.1919 12.7502 45.235 12.7859 45.2699C12.8213 45.305 12.8647 45.3311 12.9125 45.3456C12.9602 45.3604 13.0108 45.3632 13.06 45.354L22.3307 43.6217C22.3913 43.6106 22.4472 43.5811 22.4905 43.5376L43.8458 22.327C43.8896 22.2835 43.9191 22.228 43.9304 22.1675L45.6746 12.9599C45.6829 12.9159 45.6814 12.8706 45.6702 12.8272C45.659 12.7839 45.6384 12.7435 45.6097 12.709C45.581 12.6744 45.5452 12.6465 45.5045 12.6272C45.4638 12.608 45.4193 12.5978 45.3742 12.5974L45.3732 12.5963Z" fill="white"/>
<path d="M45.3792 45.9313C45.3241 45.9313 45.2695 45.9262 45.2154 45.9162L35.9454 44.1839C35.7701 44.1519 35.6087 44.0673 35.4831 43.9417L14.1281 22.7312C14.002 22.6062 13.9169 22.4461 13.8844 22.2719L12.1403 13.0647C12.1136 12.9241 12.1219 12.7793 12.1644 12.6426C12.2069 12.506 12.2823 12.3818 12.3842 12.2806C12.486 12.1795 12.6111 12.1046 12.7487 12.0624C12.8863 12.0203 13.0321 12.0122 13.1736 12.0387L22.444 13.7706C22.6189 13.8032 22.7798 13.8876 22.9055 14.0127L44.2609 35.2233C44.3871 35.3485 44.472 35.5087 44.5047 35.6828L46.2487 44.8902C46.2727 45.0171 46.2683 45.1477 46.2356 45.2727C46.2032 45.3978 46.1431 45.5141 46.0601 45.6136C45.9771 45.7131 45.873 45.793 45.7554 45.8479C45.6377 45.9029 45.5093 45.9313 45.3792 45.9313ZM13.0083 12.5965C12.9633 12.5969 12.9189 12.607 12.8783 12.6263C12.8376 12.6456 12.8018 12.6735 12.7732 12.7081C12.7446 12.7426 12.724 12.783 12.7127 12.8264C12.7016 12.8697 12.7001 12.9149 12.7084 12.9589L14.4522 22.1665C14.4637 22.227 14.4934 22.2824 14.5371 22.326L35.892 43.5365C35.9357 43.5803 35.9918 43.6096 36.0527 43.6207L45.3229 45.3529C45.3721 45.3622 45.4228 45.3593 45.4706 45.3445C45.5183 45.33 45.5618 45.3039 45.5971 45.2688C45.6326 45.2336 45.6588 45.1905 45.6736 45.1431C45.6883 45.0955 45.6913 45.0452 45.682 44.9963L43.9379 35.7891C43.9267 35.7285 43.897 35.6728 43.8533 35.6292L22.4979 14.4186C22.4544 14.375 22.3985 14.3457 22.3377 14.3345L13.0675 12.6023C13.048 12.5987 13.0282 12.5968 13.0083 12.5965Z" fill="white"/>
<path d="M29.1908 52.5952C29.0471 52.5952 28.9053 52.5602 28.7781 52.4935C28.6511 52.4268 28.5422 52.3302 28.4611 52.2122L23.1383 44.4774C23.0374 44.3316 22.9837 44.1586 22.9844 43.9815V13.9852C22.9839 13.8083 23.0376 13.6353 23.1383 13.4894L28.4603 5.75381C28.5415 5.63588 28.6503 5.53938 28.7775 5.4727C28.9046 5.40601 29.0463 5.37114 29.1901 5.37109C29.3339 5.3712 29.4755 5.4061 29.6027 5.4728C29.7299 5.53947 29.8387 5.63592 29.9199 5.75381L35.2416 13.4894C35.342 13.6354 35.3957 13.8083 35.3955 13.9852V43.9815C35.3958 44.1586 35.342 44.3314 35.2416 44.4774L29.9216 52.2111C29.8406 52.3295 29.7316 52.4263 29.6041 52.4932C29.4769 52.5602 29.3349 52.5952 29.1908 52.5952ZM29.1908 5.94371C29.1405 5.94316 29.0908 5.95505 29.0463 5.97825C29.0017 6.00147 28.9636 6.0353 28.9354 6.07671L23.6134 13.8123C23.5785 13.8631 23.56 13.9231 23.5602 13.9844V43.9808C23.56 44.0424 23.5785 44.1024 23.6134 44.1533L28.9354 51.8885C28.9635 51.9301 29.0016 51.9641 29.0462 51.9874C29.0907 52.0106 29.1404 52.0225 29.1908 52.0219C29.2413 52.0226 29.291 52.0107 29.3356 51.9874C29.3801 51.9642 29.4182 51.9301 29.4462 51.8885L34.7665 44.1512C34.8015 44.1004 34.8203 44.0402 34.8201 43.9788V13.9823C34.8203 13.9208 34.8015 13.8607 34.7665 13.8101L29.4448 6.07453C29.4167 6.03341 29.3789 5.99983 29.3346 5.97682C29.2901 5.95379 29.2408 5.94205 29.1908 5.94263V5.94371Z" fill="white"/>
<path d="M35.3506 43.7814L29.1422 37.6145L22.9336 43.7814V35.0628H14.1562L20.3646 28.8964L14.1562 22.7306H22.9336V14.0117L29.1422 20.1781L35.3506 14.0117V22.7306H44.1273L37.919 28.8973L44.1273 35.0628H35.3506V43.7814ZM29.5491 37.209L34.772 42.3965V35.0628H31.7099L29.5491 37.209ZM23.5119 35.0628V42.3965L28.735 37.209L26.5743 35.0628H23.5119ZM27.3905 35.0628L29.1419 36.8024L30.8934 35.0628H27.3905ZM35.3517 34.4895H42.7354L37.5122 29.3021L35.3517 31.4483V34.4895ZM32.2898 34.4895H34.7742V32.0215L32.2898 34.4895ZM26.8132 34.4895H31.4731L34.7742 31.2105V26.5822L31.4731 23.3032H26.8122L23.5109 26.5822V31.2109L26.8132 34.4895ZM23.5119 34.4895H25.9967L23.5119 32.0215V34.4895ZM15.5511 34.4895H22.9348V31.4483L20.774 29.3021L15.5511 34.4895ZM35.3517 27.1558V30.6371L37.1031 28.8976L35.3517 27.1558ZM21.1822 28.8954L22.9336 30.635V27.1537L21.1822 28.8954ZM35.3517 26.3434L37.5122 28.4898L42.7354 23.302H35.3506L35.3517 26.3434ZM15.5511 23.302L20.7728 28.4929L22.9336 26.3463V23.3032L15.5511 23.302ZM32.2898 23.302L34.7742 25.7701V23.302H32.2898ZM23.5119 23.302V25.7701L25.9967 23.302H23.5119ZM31.7121 22.7287H34.7742V15.396L29.5513 20.5836L31.7121 22.7287ZM27.3905 22.7287H30.896L29.1444 20.9891L27.3905 22.7287ZM23.5119 22.7287H26.5743L28.735 20.5826L23.5119 15.396V22.7287Z" fill="white"/>
<path d="M44.2867 35.1445H14.0861C13.908 35.1446 13.7339 35.0912 13.587 34.991L5.79879 29.7049C5.68019 29.6243 5.58317 29.5161 5.51614 29.3898C5.4491 29.2635 5.41406 29.123 5.41406 28.9802C5.41406 28.8374 5.4491 28.6969 5.51614 28.5704C5.58317 28.4441 5.68019 28.3361 5.79879 28.2554L13.587 22.9692C13.734 22.8695 13.9081 22.8161 14.0861 22.8164H44.2867C44.4648 22.8163 44.6388 22.8696 44.7858 22.9692L52.5737 28.2554C52.6925 28.336 52.7895 28.4441 52.8566 28.5704C52.9236 28.6967 52.9588 28.8374 52.9588 28.9802C52.9588 29.123 52.9236 29.2637 52.8566 29.39C52.7895 29.5163 52.6925 29.6244 52.5737 29.7049L44.7858 34.991C44.639 35.0912 44.465 35.1446 44.2867 35.1445ZM14.0861 23.3883C14.0242 23.3883 13.9636 23.4068 13.9125 23.4415L6.12462 28.7276C6.08323 28.7555 6.04936 28.7932 6.02594 28.8371C6.00252 28.881 5.99028 28.9299 5.99028 28.9796C5.99028 29.0294 6.00252 29.0784 6.02594 29.1222C6.04936 29.1662 6.08323 29.2037 6.12462 29.2316L13.9125 34.5178C13.9636 34.5526 14.0242 34.5711 14.0861 34.571H44.2867C44.3487 34.571 44.409 34.5524 44.46 34.5178L52.2482 29.2316C52.2897 29.2037 52.3235 29.1662 52.347 29.1222C52.3704 29.0784 52.3826 29.0294 52.3826 28.9796C52.3826 28.9299 52.3704 28.881 52.347 28.8371C52.3235 28.7932 52.2897 28.7555 52.2482 28.7276L44.46 23.4415C44.409 23.4068 44.3487 23.3883 44.2867 23.3883H14.0861Z" fill="white"/>
<path d="M31.5891 5.80634L35.9008 12.0673C35.9322 12.1129 35.9763 12.1485 36.0276 12.1698C36.079 12.191 36.1354 12.197 36.1902 12.1869L43.7431 10.8061C43.7819 10.799 43.8188 10.7841 43.8516 10.7621C43.8844 10.7402 43.9122 10.7118 43.9334 10.6787C43.9546 10.6456 43.9687 10.6085 43.9748 10.5698C43.9809 10.531 43.9789 10.4914 43.9689 10.4535L41.29 0.214033C41.2789 0.171261 41.258 0.13163 41.2288 0.0982701C41.1997 0.0649111 41.1631 0.0387391 41.1221 0.0218031C41.0811 0.00486697 41.0365 -0.00236733 40.9921 0.000678846C40.9478 0.00372503 40.9047 0.0169666 40.8664 0.039355L31.681 5.39899C31.6471 5.41881 31.6176 5.44534 31.5944 5.47697C31.5711 5.50859 31.5547 5.54463 31.5461 5.58283C31.5374 5.62103 31.5368 5.6606 31.5442 5.69904C31.5516 5.73749 31.5669 5.774 31.5891 5.80634Z" fill="white"/>
<path d="M47.4712 14.5029L46.0599 21.9758C46.0493 22.0303 46.055 22.087 46.0762 22.1385C46.0974 22.19 46.1333 22.2342 46.1795 22.2657L52.5171 26.6033C52.5497 26.6257 52.5866 26.641 52.6254 26.6486C52.6642 26.6561 52.7043 26.6555 52.743 26.6471C52.7817 26.6386 52.8182 26.6222 52.8502 26.599C52.8821 26.5758 52.909 26.5464 52.9289 26.5124L58.3364 17.3699C58.3591 17.3317 58.3725 17.2888 58.3754 17.2447C58.3786 17.2005 58.3713 17.1563 58.3543 17.1153C58.3373 17.0744 58.3108 17.038 58.2773 17.0088C58.2437 16.9798 58.2037 16.9588 58.1605 16.9476L47.827 14.2808C47.7889 14.2709 47.7493 14.2689 47.7101 14.2748C47.6713 14.2808 47.634 14.2945 47.6007 14.3154C47.5674 14.3362 47.5386 14.3636 47.5164 14.3959C47.4941 14.4281 47.4789 14.4645 47.4712 14.5029Z" fill="white"/>
<path d="M14.7874 10.6883L22.0961 12.0506C22.1494 12.0604 22.2044 12.0548 22.2544 12.0342C22.3044 12.0138 22.3474 11.9792 22.3781 11.935L26.6206 5.81973C26.6425 5.78824 26.6578 5.75257 26.6654 5.71496C26.6728 5.67733 26.6723 5.63858 26.664 5.60114C26.6558 5.56369 26.6396 5.52837 26.6169 5.49738C26.5941 5.46638 26.5652 5.44041 26.5319 5.42108L17.5896 0.202415C17.5522 0.180627 17.5104 0.167722 17.4672 0.164735C17.424 0.161745 17.3808 0.168748 17.3407 0.185185C17.3007 0.201622 17.2651 0.227055 17.2368 0.259473C17.2083 0.29189 17.1878 0.330414 17.1769 0.372017L14.5681 10.3433C14.558 10.3803 14.556 10.419 14.5618 10.4568C14.5676 10.4947 14.5813 10.531 14.6018 10.5634C14.6224 10.5958 14.6495 10.6236 14.6815 10.6451C14.7134 10.6666 14.7493 10.6814 14.7874 10.6883Z" fill="white"/>
<path d="M5.85896 26.6145L12.1771 22.3217C12.2231 22.2906 12.2589 22.2468 12.2803 22.1956C12.3017 22.1447 12.3076 22.0884 12.2975 22.0341L10.9041 14.5155C10.8969 14.4769 10.8818 14.4401 10.8597 14.4075C10.8376 14.3749 10.809 14.3471 10.7756 14.326C10.7422 14.3049 10.7047 14.2909 10.6657 14.2847C10.6265 14.2786 10.5866 14.2805 10.5483 14.2905L0.215467 16.9575C0.172374 16.9686 0.132474 16.9897 0.0988948 17.0187C0.0653159 17.0477 0.0389683 17.0841 0.0219291 17.1249C0.00489 17.1658 -0.00238144 17.2101 0.000683462 17.2541C0.00374836 17.2984 0.0170671 17.3411 0.0395948 17.3793L5.44776 26.5231C5.4678 26.557 5.49462 26.5863 5.52658 26.6094C5.55851 26.6326 5.59487 26.6488 5.63342 26.6574C5.67197 26.6659 5.71188 26.6667 5.75066 26.6593C5.78946 26.6519 5.82633 26.6367 5.85896 26.6145Z" fill="white"/>
<path d="M10.9129 43.4534L12.3243 35.981C12.3348 35.9262 12.3291 35.8698 12.3079 35.8183C12.2866 35.7668 12.2508 35.7225 12.2046 35.691L5.86709 31.3552C5.8345 31.3329 5.79761 31.3175 5.75877 31.31C5.71991 31.3024 5.67992 31.303 5.64127 31.3114C5.60261 31.32 5.56614 31.3362 5.53413 31.3594C5.50211 31.3825 5.47521 31.4119 5.45515 31.4458L0.0473578 40.5885C0.0248328 40.6268 0.0115279 40.6696 0.00848525 40.7137C0.00544267 40.7579 0.0127488 40.8022 0.0298256 40.843C0.0469024 40.8839 0.0732872 40.9203 0.106908 40.9493C0.140529 40.9784 0.180467 40.9993 0.223593 41.0105L10.5572 43.6777C10.5954 43.6876 10.6353 43.6895 10.6744 43.6834C10.7134 43.6773 10.7508 43.6634 10.7841 43.6424C10.8175 43.6213 10.8462 43.5936 10.8683 43.5612C10.8904 43.5287 10.9057 43.492 10.9129 43.4534Z" fill="white"/>
<path d="M26.7957 52.1529L22.484 45.8919C22.4524 45.8464 22.4084 45.8107 22.3571 45.7895C22.3057 45.7684 22.2492 45.7623 22.1945 45.7723L14.6417 47.1531C14.6029 47.1602 14.5659 47.1752 14.5332 47.197C14.5004 47.2189 14.4725 47.2474 14.4513 47.2804C14.4301 47.3135 14.4159 47.3506 14.4097 47.3893C14.4036 47.4282 14.4056 47.4678 14.4155 47.5056L17.0946 57.7455C17.1058 57.7881 17.1268 57.8279 17.156 57.8612C17.1852 57.8944 17.2217 57.9205 17.2627 57.9375C17.3038 57.9544 17.3483 57.9616 17.3927 57.9585C17.437 57.9555 17.48 57.9423 17.5184 57.9198L26.7036 52.5602C26.7376 52.5403 26.7672 52.5138 26.7904 52.4821C26.8137 52.4505 26.8301 52.4146 26.8388 52.3763C26.8474 52.3382 26.848 52.2986 26.8406 52.2602C26.8332 52.2217 26.8179 52.1852 26.7957 52.1529Z" fill="white"/>
<path d="M43.7501 47.1439L36.2417 45.7431C36.1871 45.733 36.1305 45.7388 36.0791 45.7598C36.0278 45.781 35.9836 45.8164 35.952 45.862L31.5937 52.1443C31.5711 52.1767 31.5559 52.2132 31.5483 52.2516C31.5406 52.2902 31.5413 52.3298 31.5498 52.3681C31.5584 52.4063 31.5748 52.4424 31.598 52.4742C31.6213 52.5059 31.6508 52.5325 31.6848 52.5524L40.8715 57.9127C40.9099 57.9352 40.9531 57.9484 40.9974 57.9514C41.0417 57.9546 41.0862 57.9474 41.1274 57.9304C41.1684 57.9134 41.205 57.8873 41.2342 57.8541C41.2633 57.8208 41.2844 57.7812 41.2956 57.7384L43.9756 47.495C43.9852 47.4572 43.9869 47.4178 43.9807 47.3792C43.9744 47.3408 43.9603 47.3039 43.9393 47.271C43.9182 47.2381 43.8904 47.2098 43.8579 47.1879C43.8254 47.1662 43.7887 47.1511 43.7501 47.1439Z" fill="white"/>
<path d="M52.5218 31.3444L46.2036 35.6367C46.1573 35.6683 46.1213 35.7124 46.0999 35.7638C46.0785 35.8153 46.0727 35.8719 46.0832 35.9267L47.4767 43.4448C47.4838 43.4835 47.499 43.5203 47.5211 43.5528C47.5432 43.5856 47.5718 43.6133 47.6052 43.6343C47.6387 43.6555 47.676 43.6695 47.7151 43.6756C47.7542 43.6819 47.7942 43.6798 47.8324 43.6698L58.1649 41.003C58.2081 40.9918 58.2479 40.9709 58.2817 40.9418C58.3152 40.9128 58.3416 40.8764 58.3587 40.8355C58.3757 40.7946 58.3831 40.7504 58.3801 40.7063C58.377 40.6621 58.3636 40.6193 58.3411 40.581L52.9329 31.4376C52.9131 31.4035 52.8865 31.374 52.8545 31.3508C52.8227 31.3274 52.7864 31.3109 52.7478 31.302C52.7092 31.2933 52.6693 31.2926 52.6304 31.2999C52.5914 31.3073 52.5545 31.3223 52.5218 31.3444Z" fill="white"/>
<path d="M33.534 13.5234L29.5569 7.74191C29.5156 7.68292 29.4607 7.63474 29.3966 7.60144C29.3326 7.56817 29.2614 7.55078 29.1891 7.55078C29.1167 7.55078 29.0457 7.56817 28.9816 7.60144C28.9176 7.63474 28.8625 7.68292 28.8214 7.74191L24.8442 13.5234C24.437 14.0493 24.9208 14.5293 25.1952 14.8019L26.9637 16.5586C26.9853 16.5799 27.0113 16.596 27.0401 16.6056C27.0689 16.6154 27.0996 16.6183 27.1297 16.6144C27.1598 16.6104 27.1886 16.5996 27.2139 16.5828C27.2391 16.566 27.2601 16.5437 27.2753 16.5176L29.0176 13.5205C29.0349 13.4906 29.0601 13.4658 29.0901 13.4485C29.1202 13.4313 29.1544 13.4223 29.1891 13.4223C29.2239 13.4223 29.258 13.4313 29.2881 13.4485C29.3182 13.4658 29.3432 13.4906 29.3605 13.5205L31.1028 16.5176C31.1181 16.5437 31.139 16.566 31.1643 16.5828C31.1896 16.5996 31.2184 16.6104 31.2485 16.6144C31.2786 16.6183 31.3092 16.6154 31.338 16.6056C31.3668 16.596 31.393 16.5799 31.4145 16.5586L33.183 14.8019C33.4578 14.5293 33.9105 14.1206 33.534 13.5234Z" fill="white"/>
<path d="M15.1159 36.8567L13.8118 43.7374C13.799 43.8081 13.8035 43.8808 13.8251 43.9492C13.8467 44.0178 13.8846 44.0801 13.9358 44.1309C13.9868 44.1816 14.0496 44.2195 14.1186 44.2409C14.1875 44.2624 14.2607 44.2669 14.3318 44.2541L21.2607 42.96C21.9231 42.8742 21.9226 42.195 21.9226 41.8094V39.3252C21.9226 39.2949 21.9158 39.2651 21.9023 39.238C21.8889 39.211 21.8694 39.1874 21.8453 39.169C21.8211 39.1507 21.7931 39.138 21.7633 39.1323C21.7335 39.1264 21.7028 39.1274 21.6735 39.1352L18.3078 40.0312C18.2743 40.04 18.2388 40.04 18.2053 40.0312C18.1718 40.0222 18.1411 40.0046 18.1165 39.9801C18.092 39.9558 18.0742 39.9253 18.0652 39.892C18.0562 39.8586 18.0562 39.8235 18.0652 39.7902L18.9668 36.4469C18.9748 36.4178 18.9758 36.3872 18.9699 36.3576C18.9639 36.328 18.9512 36.3002 18.9328 36.2762C18.9143 36.2523 18.8905 36.2329 18.8631 36.2195C18.836 36.2062 18.806 36.1994 18.7756 36.1994H16.2744C15.888 36.1994 15.2761 36.1707 15.1159 36.8567Z" fill="white"/>
<path d="M37.1192 42.96L44.0467 44.2556C44.1178 44.2683 44.1911 44.2637 44.26 44.2424C44.329 44.2208 44.3917 44.1831 44.4429 44.1323C44.4939 44.0814 44.5318 44.0192 44.5535 43.9506C44.575 43.8822 44.5795 43.8094 44.5667 43.7388L43.264 36.8566C43.1775 36.1989 42.4939 36.1992 42.1056 36.1992H39.6043C39.5741 36.1992 39.544 36.2062 39.5168 36.2195C39.4895 36.2329 39.4658 36.2521 39.4472 36.2762C39.4287 36.3001 39.4161 36.328 39.4103 36.3576C39.4043 36.3871 39.4053 36.4177 39.4132 36.4469L40.3148 39.7897C40.3239 39.8229 40.3239 39.8583 40.3151 39.8916C40.3062 39.925 40.2883 39.9556 40.2637 39.9799C40.2392 40.0045 40.2085 40.022 40.1748 40.0308C40.1412 40.0398 40.1057 40.0397 40.0721 40.0307L36.7065 39.1352C36.6772 39.1273 36.6465 39.1262 36.6167 39.1321C36.5869 39.1379 36.5588 39.1505 36.5347 39.169C36.5107 39.1874 36.4911 39.2109 36.4777 39.238C36.4643 39.2651 36.4574 39.2948 36.4574 39.3251V41.8093C36.4566 42.195 36.4279 42.8014 37.1192 42.96Z" fill="white"/>
<path d="M43.2641 21.0996L44.5681 14.2189C44.5811 14.1482 44.5765 14.0756 44.555 14.007C44.5334 13.9385 44.4954 13.8763 44.4443 13.8255C44.3932 13.7747 44.3304 13.737 44.2615 13.7156C44.1925 13.6941 44.1194 13.6897 44.0483 13.7024L37.1193 14.9962C36.457 15.0822 36.457 15.7613 36.457 16.147V18.6311C36.457 18.6614 36.4642 18.6911 36.4775 18.7182C36.491 18.7454 36.5105 18.7688 36.5347 18.7873C36.5588 18.8057 36.5868 18.8183 36.6166 18.8241C36.6464 18.8299 36.6773 18.8289 36.7066 18.821L40.0722 17.9255C40.1058 17.9167 40.1412 17.9167 40.1747 17.9255C40.2083 17.9345 40.239 17.9521 40.2636 17.9766C40.2881 18.0009 40.3059 18.0314 40.3149 18.0647C40.3239 18.0981 40.3239 18.1333 40.3149 18.1665L39.4128 21.5095C39.4051 21.5385 39.4041 21.5691 39.4099 21.5987C39.416 21.6284 39.4287 21.6561 39.4472 21.68C39.4658 21.7039 39.4896 21.7234 39.5168 21.7367C39.5441 21.75 39.5741 21.757 39.6044 21.757H42.1057C42.4938 21.7587 43.1044 21.788 43.2641 21.0996Z" fill="white"/>
<path d="M13.6265 24.6654L7.80571 28.6156C7.74632 28.6565 7.6978 28.7112 7.66429 28.7747C7.63078 28.8383 7.61328 28.9091 7.61328 28.9809C7.61328 29.0528 7.63078 29.1234 7.66429 29.1871C7.6978 29.2507 7.74632 29.3052 7.80571 29.3463L13.6265 33.2965C14.1556 33.7009 14.6391 33.2208 14.9138 32.9478L16.6824 31.1913C16.7038 31.1698 16.72 31.144 16.7298 31.1153C16.7395 31.0867 16.7426 31.0563 16.7385 31.0264C16.7346 30.9965 16.7237 30.968 16.7068 30.9429C16.6899 30.9178 16.6674 30.8968 16.6411 30.8817L13.6236 29.1512C13.5936 29.134 13.5685 29.1092 13.5512 29.0793C13.5339 29.0493 13.5247 29.0155 13.5247 28.9809C13.5247 28.9464 13.5339 28.9124 13.5512 28.8826C13.5685 28.8527 13.5936 28.8279 13.6236 28.8106L16.6411 27.0801C16.6674 27.065 16.6899 27.0441 16.7068 27.019C16.7237 26.9939 16.7346 26.9654 16.7385 26.9355C16.7426 26.9056 16.7395 26.875 16.7298 26.8465C16.72 26.8179 16.7038 26.792 16.6824 26.7706L14.9138 25.0151C14.6391 24.7415 14.2278 24.2924 13.6265 24.6654Z" fill="white"/>
<path d="M24.8421 44.4349L28.8193 50.2159C28.8606 50.2749 28.9156 50.3232 28.9795 50.3565C29.0436 50.3899 29.1149 50.4073 29.1871 50.4073C29.2594 50.4073 29.3307 50.3899 29.3949 50.3565C29.4588 50.3232 29.5138 50.2749 29.5549 50.2159L33.5321 44.4349C33.9393 43.909 33.4555 43.4287 33.181 43.1563L31.4126 41.3993C31.3909 41.378 31.3649 41.3619 31.3361 41.3522C31.3073 41.3425 31.2767 41.3396 31.2466 41.3435C31.2165 41.3474 31.1877 41.3583 31.1624 41.3751C31.1371 41.3918 31.1162 41.4141 31.1009 41.4402L29.3587 44.4374C29.3412 44.4672 29.3162 44.492 29.2861 44.5093C29.256 44.5265 29.2219 44.5355 29.1871 44.5355C29.1524 44.5355 29.1182 44.5265 29.0881 44.5093C29.058 44.492 29.0332 44.4672 29.0157 44.4374L27.2735 41.4402C27.2582 41.4141 27.2373 41.3918 27.212 41.3751C27.1867 41.3583 27.1579 41.3474 27.1277 41.3435C27.0976 41.3396 27.067 41.3425 27.0383 41.3522C27.0095 41.3619 26.9833 41.378 26.9618 41.3993L25.1932 43.1563C24.9185 43.4287 24.4668 43.8372 24.8421 44.4349Z" fill="white"/>
<path d="M44.7466 33.2945L50.5673 29.3443C50.6268 29.3034 50.6752 29.2489 50.7088 29.1852C50.7424 29.1216 50.7598 29.0508 50.7598 28.979C50.7598 28.9072 50.7424 28.8365 50.7088 28.7728C50.6752 28.7093 50.6268 28.6547 50.5673 28.6138L44.7466 24.6634C44.2174 24.259 43.7341 24.7397 43.4593 25.0121L41.6907 26.7686C41.6692 26.7901 41.6531 26.8161 41.6433 26.8446C41.6336 26.8732 41.6305 26.9036 41.6345 26.9335C41.6385 26.9635 41.6494 26.9921 41.6663 27.0172C41.6832 27.0423 41.7057 27.0631 41.732 27.0782L44.7495 28.8086C44.7797 28.8259 44.8047 28.8508 44.8222 28.8807C44.8396 28.9106 44.8486 28.9447 44.8486 28.9792C44.8486 29.0138 44.8396 29.0477 44.8222 29.0776C44.8047 29.1076 44.7797 29.1324 44.7495 29.1497L41.732 30.8798C41.7057 30.8949 41.6832 30.9158 41.6663 30.9409C41.6494 30.966 41.6385 30.9947 41.6345 31.0245C41.6305 31.0544 41.6336 31.0849 41.6433 31.1134C41.6531 31.142 41.6692 31.1681 41.6907 31.1894L43.4593 32.9459C43.7341 33.2188 44.1453 33.6674 44.7466 33.2945Z" fill="white"/>
<path d="M21.3533 15.0234L14.4258 13.7277C14.3547 13.715 14.2815 13.7196 14.2125 13.7411C14.1435 13.7625 14.0808 13.8002 14.0297 13.851C13.9786 13.9018 13.9406 13.9641 13.9189 14.0327C13.8973 14.1012 13.8927 14.1738 13.9055 14.2445L15.2084 21.1266C15.2949 21.784 15.9788 21.784 16.3669 21.784H18.8681C18.8985 21.784 18.9285 21.7771 18.9557 21.7637C18.9828 21.7504 19.0065 21.7309 19.0251 21.707C19.0436 21.6831 19.0563 21.6554 19.0622 21.6257C19.0682 21.5961 19.0672 21.5656 19.0593 21.5365L18.1573 18.1932C18.1484 18.16 18.1484 18.1248 18.1573 18.0914C18.1664 18.0581 18.184 18.0277 18.2086 18.0033C18.2333 17.9788 18.2638 17.9612 18.2974 17.9523C18.3312 17.9434 18.3665 17.9434 18.4001 17.9523L21.766 18.8482C21.7953 18.856 21.8261 18.857 21.8558 18.8512C21.8857 18.8453 21.9137 18.8327 21.9378 18.8143C21.9619 18.796 21.9814 18.7724 21.9949 18.7453C22.0083 18.7183 22.0153 18.6884 22.0153 18.6583V16.174C22.0153 15.7884 22.0439 15.182 21.3533 15.0234Z" fill="white"/>
<path d="M26.6476 20.8187L26.2276 21.2358C26.0773 21.385 25.8737 21.469 25.6611 21.4691H25.0624C24.9338 21.4691 24.8107 21.4184 24.7199 21.3281C24.6291 21.2379 24.5781 21.1155 24.5781 20.9879V18.528C24.5781 18.4914 24.589 18.4559 24.6094 18.4257C24.6299 18.3954 24.6588 18.3718 24.6927 18.3579C24.7265 18.3438 24.7638 18.3402 24.7998 18.3473C24.8357 18.3542 24.8689 18.3718 24.8949 18.3975L26.6462 20.137C26.6915 20.1817 26.7276 20.2346 26.7523 20.293C26.7769 20.3515 26.7896 20.4143 26.7896 20.4776C26.7898 20.541 26.7773 20.6036 26.753 20.6622C26.7286 20.7208 26.6928 20.774 26.6476 20.8187Z" fill="white"/>
<path d="M33.1947 21.432H32.6003C32.3879 21.4317 32.1843 21.3479 32.0339 21.1988L31.6108 20.7784C31.5657 20.7338 31.53 20.6809 31.5055 20.6224C31.4813 20.564 31.4688 20.5015 31.4688 20.4383C31.4688 20.3751 31.4813 20.3124 31.5055 20.254C31.53 20.1955 31.5657 20.1426 31.6108 20.0978L33.3622 18.3584C33.3882 18.3327 33.4212 18.3152 33.4573 18.3082C33.4932 18.3011 33.5304 18.3047 33.5643 18.3188C33.5981 18.3327 33.6272 18.3562 33.6476 18.3865C33.6679 18.4168 33.6788 18.4524 33.679 18.4888V20.9507C33.679 21.0139 33.6665 21.0764 33.6422 21.1349C33.6178 21.1931 33.5821 21.2462 33.5372 21.2909C33.4922 21.3355 33.4388 21.3711 33.3801 21.3953C33.3212 21.4195 33.2583 21.432 33.1947 21.432Z" fill="white"/>
<path d="M37.3812 26.4579L36.9612 26.0408C36.8112 25.8914 36.7267 25.6891 36.7266 25.478V24.8832C36.7266 24.7556 36.7777 24.6333 36.8684 24.5431C36.9593 24.453 37.0824 24.4023 37.2108 24.4023H39.6879C39.7247 24.4022 39.7606 24.4131 39.7911 24.4334C39.8216 24.4535 39.8453 24.4824 39.8594 24.516C39.8734 24.5498 39.877 24.5868 39.8699 24.6226C39.8628 24.6584 39.8449 24.6912 39.8189 24.7169L38.0676 26.4564C38.0225 26.5014 37.9692 26.537 37.9103 26.5614C37.8516 26.5858 37.7883 26.5984 37.7247 26.5985C37.6609 26.5987 37.5978 26.5863 37.5389 26.5623C37.4799 26.5381 37.4264 26.5027 37.3812 26.4579Z" fill="white"/>
<path d="M36.7656 32.9526V32.3623C36.7658 32.1512 36.8501 31.9488 37.0003 31.7994L37.4236 31.3791C37.5143 31.2889 37.6376 31.2383 37.7659 31.2383C37.8943 31.2383 38.0176 31.2889 38.1083 31.3791L39.8597 33.1186C39.8859 33.1443 39.9036 33.1772 39.9107 33.213C39.918 33.2488 39.9143 33.286 39.9001 33.3196C39.8861 33.3534 39.8622 33.3821 39.8316 33.4024C39.8011 33.4226 39.7652 33.4333 39.7284 33.4331H37.2497C37.1215 33.4331 36.9984 33.3825 36.9075 33.2925C36.8168 33.2023 36.7656 33.0801 36.7656 32.9526Z" fill="white"/>
<path d="M31.712 37.117L32.1325 36.6998C32.2069 36.6259 32.2951 36.5673 32.3924 36.5273C32.4896 36.4872 32.5939 36.4667 32.6991 36.4668H33.2975C33.426 36.4668 33.5491 36.5175 33.6398 36.6076C33.7307 36.6979 33.7817 36.8202 33.7817 36.9476V39.4077C33.7817 39.4442 33.7711 39.4799 33.7506 39.5103C33.7302 39.5407 33.7013 39.5644 33.6674 39.5784C33.6334 39.5923 33.596 39.5959 33.56 39.5888C33.5239 39.5817 33.4909 39.564 33.4649 39.5382L31.7136 37.7986C31.6683 37.754 31.6324 37.701 31.6078 37.6426C31.5833 37.584 31.5706 37.5214 31.5703 37.458C31.5702 37.3948 31.5827 37.332 31.6069 37.2734C31.6314 37.2149 31.667 37.1618 31.712 37.117Z" fill="white"/>
<path d="M25.1642 36.5039H25.7582C25.9709 36.5042 26.1747 36.588 26.325 36.7374L26.7482 37.1577C26.8389 37.2479 26.8899 37.3703 26.8899 37.4979C26.8899 37.6253 26.8389 37.7477 26.7482 37.8379L24.9967 39.5775C24.9709 39.6033 24.9377 39.6208 24.9017 39.6279C24.8656 39.6352 24.8283 39.6314 24.7944 39.6175C24.7604 39.6036 24.7314 39.5799 24.7109 39.5495C24.6906 39.5192 24.6797 39.4835 24.6797 39.447V36.9852C24.6798 36.8576 24.7309 36.7352 24.8217 36.645C24.9126 36.5548 25.0358 36.5041 25.1642 36.5039Z" fill="white"/>
<path d="M20.9761 31.4787L21.3965 31.8961C21.5465 32.0455 21.6308 32.2476 21.6311 32.4586V33.0534C21.631 33.1808 21.5798 33.3032 21.4891 33.3934C21.3981 33.4836 21.275 33.5342 21.1465 33.5342H18.6698C18.6331 33.5342 18.5972 33.5233 18.5667 33.5032C18.5363 33.4829 18.5125 33.4542 18.4985 33.4204C18.4844 33.3869 18.4808 33.3499 18.4879 33.3141C18.4949 33.2783 18.5125 33.2455 18.5384 33.2197L20.2898 31.4801C20.3347 31.4352 20.3881 31.3995 20.4469 31.3752C20.5058 31.3507 20.5689 31.338 20.6326 31.3379C20.6964 31.3377 20.7596 31.3502 20.8185 31.3743C20.8774 31.3985 20.931 31.4339 20.9761 31.4787Z" fill="white"/>
<path d="M21.59 24.9813V25.5713C21.5898 25.7822 21.5054 25.9847 21.3553 26.134L20.9322 26.5544C20.8412 26.6446 20.718 26.6952 20.5897 26.6952C20.4612 26.6952 20.338 26.6446 20.2472 26.5544L18.4958 24.8149C18.4699 24.789 18.4521 24.7562 18.445 24.7204C18.4378 24.6846 18.4415 24.6475 18.4555 24.6138C18.4696 24.58 18.4934 24.5513 18.524 24.531C18.5545 24.5107 18.5904 24.4999 18.6272 24.5H21.106C21.2345 24.5001 21.3575 24.5509 21.4482 24.6412C21.5389 24.7314 21.59 24.8537 21.59 24.9813Z" fill="white"/>
<path d="M27.8866 31.0879H31.2358V30.2073H32.1224V26.8807H31.2358V26H27.8866V26.8807H27V30.2073H27.8866V31.0879Z" fill="white"/>
<path d="M96.8365 26.7417L95.6055 23.841H89.9933L88.7625 26.7417H85.8203L91.8086 12.9216H93.9366L99.7576 26.7417H96.8365ZM90.8481 21.6446H94.8125L92.8307 16.6719L90.8481 21.6446Z" fill="white"/>
<path d="M108.183 15.2422H105.053V26.7417H102.341V15.2422H99.2109V12.9216H108.183V15.2422Z" fill="white"/>
<path d="M109.898 12.9219H112.611V21.6034C112.611 22.4737 112.833 23.1574 113.279 23.6546C113.807 24.2901 114.544 24.6078 115.49 24.6078C116.436 24.6078 117.173 24.2901 117.702 23.6546C118.147 23.1574 118.369 22.4737 118.369 21.6034V12.9219H121.082V21.3755C121.082 22.9503 120.734 24.1796 120.039 25.0636C119.552 25.6989 118.898 26.1893 118.077 26.5347C117.271 26.8801 116.408 27.0527 115.49 27.0527C114.572 27.0527 113.703 26.8801 112.882 26.5347C112.076 26.1893 111.429 25.6989 110.942 25.0636C110.246 24.1796 109.898 22.9503 109.898 21.3755V12.9219Z" fill="white"/>
<path d="M123.977 12.9219H128.003C129.533 12.9219 130.716 13.2672 131.55 13.9579C132.468 14.7314 132.927 15.7675 132.927 17.0658C132.927 18.5024 132.385 19.5868 131.3 20.3189C130.882 20.609 130.375 20.8093 129.776 20.9197L134.116 26.7419H130.736L127.023 21.189H126.689V26.7419H123.977V12.9219ZM126.689 15.1181V19.2828H127.461C127.683 19.2828 127.899 19.2691 128.108 19.2414C128.33 19.2 128.615 19.1241 128.963 19.0134C129.311 18.8892 129.589 18.675 129.798 18.3712C130.02 18.0535 130.132 17.6599 130.132 17.1902C130.132 16.7205 130.027 16.3337 129.818 16.0299C129.61 15.7122 129.332 15.498 128.983 15.3876C128.636 15.2631 128.358 15.1872 128.149 15.1596C127.94 15.1321 127.725 15.1181 127.502 15.1181H126.689Z" fill="white"/>
<path d="M145.423 26.7419L144.192 23.8412H138.579L137.348 26.7419H134.406L140.395 12.9219H142.523L148.343 26.7419H145.423ZM139.435 21.6449H143.399L141.417 16.6721L139.435 21.6449Z" fill="white"/>
<path d="M149.977 12.9219H152.689V24.4213H156.988V26.7419H149.977V12.9219Z" fill="white"/>
<path d="M75.3843 26.7418H72.6719V12.9219H74.5498L81.4738 22.1421V12.9219H84.1861V26.7418H82.3083L75.3843 17.5008V26.7418Z" fill="white"/>
<path d="M97.9358 31.1113V33.4841H91.9999V36.6408H97.7211V39.0135H91.9999V42.8694H97.9358V45.2422H89.2031V31.1113H97.9358Z" fill="white"/>
<path d="M112.873 45.2422L111.604 42.2762H105.818L104.549 45.2422H101.516L107.689 31.1113H109.883L115.885 45.2422H112.873ZM106.7 40.0304H110.787L108.743 34.9459L106.7 40.0304Z" fill="white"/>
<path d="M120.012 31.1113H122.808V42.8694H128.013V45.2422H120.012V31.1113Z" fill="white"/>
<path d="M141.309 33.4841H137.308V45.2422H134.512V33.4841H130.512V31.1113H141.309V33.4841Z" fill="white"/>
<path d="M148.037 31.1113V36.5772H154.298V31.1113H156.977V45.2422H154.298V38.95H148.037V45.2422H145.414V31.1113H148.037Z" fill="white"/>
<path d="M75.2938 30.957V36.423H81.5546V30.957H84.2345V45.0879H81.5546V38.7957H75.2938V45.0879H72.6719V30.957H75.2938Z" fill="white"/>
<path d="M76.0506 50.2474L75.8433 50.6726C75.6783 50.5089 75.706 50.5217 75.5121 50.4317C75.2771 50.3251 75.0398 50.2719 74.8005 50.2719C74.3262 50.2719 73.9301 50.4377 73.6124 50.7695C73.2989 51.0972 73.1422 51.5006 73.1422 51.9798C73.1422 52.4959 73.3134 52.9033 73.6557 53.2023C74.0023 53.5013 74.3859 53.6508 74.8066 53.6508C75.0708 53.6508 75.3266 53.5873 75.574 53.4603C75.7473 53.3743 75.9061 53.2596 76.0506 53.1163V53.6815C75.6751 53.9476 75.2605 54.0807 74.8066 54.0807C74.1962 54.0807 73.6867 53.878 73.2782 53.4726C72.8739 53.0672 72.6719 52.5675 72.6719 51.9736C72.6719 51.3633 72.8761 50.8555 73.2845 50.4501C73.697 50.0446 74.2127 49.8418 74.8315 49.8418C75.2853 49.8418 75.6917 49.9771 76.0506 50.2474Z" fill="white"/>
<path d="M84.8255 53.4726C84.4131 53.878 83.9058 54.0807 83.3035 54.0807C82.7011 54.0807 82.1917 53.878 81.7751 53.4726C81.3625 53.0672 81.1562 52.5634 81.1562 51.9613C81.1562 51.3552 81.3646 50.8514 81.7812 50.4501C82.198 50.0446 82.7053 49.8418 83.3035 49.8418C83.9016 49.8418 84.4091 50.0446 84.8255 50.4501C85.2423 50.8514 85.4503 51.3552 85.4503 51.9613C85.4503 52.5634 85.2423 53.0672 84.8255 53.4726ZM84.4916 50.7634C84.1657 50.4357 83.7696 50.2719 83.3035 50.2719C82.8373 50.2719 82.4413 50.4357 82.1154 50.7634C81.7895 51.091 81.6267 51.4903 81.6267 51.9613C81.6267 52.4324 81.7895 52.8317 82.1154 53.1594C82.4413 53.4869 82.8373 53.6508 83.3035 53.6508C83.7696 53.6508 84.1657 53.4869 84.4916 53.1594C84.8171 52.8317 84.9802 52.4324 84.9802 51.9613C84.9802 51.4903 84.8171 51.091 84.4916 50.7634Z" fill="white"/>
<path d="M90.7773 49.9102H91.4392C91.8848 49.9102 92.2188 49.986 92.442 50.1375C92.7429 50.3382 92.8935 50.6412 92.8935 51.0467C92.8935 51.362 92.7962 51.6242 92.6026 51.833C92.4132 52.042 92.163 52.1566 91.8535 52.1771L93.1656 54.0079H92.6086L91.353 52.2139H91.2347V54.0079H90.7773V49.9102ZM91.2347 50.3402V51.8085H91.5256C91.8105 51.8085 92.0336 51.743 92.1943 51.6119C92.3549 51.4808 92.4353 51.2965 92.4353 51.059C92.4353 50.7804 92.3261 50.5798 92.1072 50.457C91.9676 50.3791 91.7691 50.3402 91.5136 50.3402H91.2347Z" fill="white"/>
<path d="M98.375 49.9102H99.1241C99.5942 49.9102 99.9408 50.0064 100.163 50.1989C100.415 50.4119 100.541 50.7048 100.541 51.0774C100.541 51.397 100.431 51.6692 100.213 51.8945C99.9984 52.1156 99.6727 52.2262 99.2349 52.2262H98.8332V54.0079H98.375V49.9102ZM98.8332 50.3402V51.7962H99.2103C99.4826 51.7962 99.6948 51.7306 99.8477 51.5996C100.004 51.4686 100.083 51.2864 100.083 51.0529C100.083 50.5777 99.7793 50.3402 99.1731 50.3402H98.8332Z" fill="white"/>
<path d="M109.13 53.4726C108.718 53.878 108.21 54.0807 107.608 54.0807C107.006 54.0807 106.497 53.878 106.08 53.4726C105.667 53.0672 105.461 52.5634 105.461 51.9613C105.461 51.3552 105.669 50.8514 106.086 50.4501C106.503 50.0446 107.01 49.8418 107.608 49.8418C108.206 49.8418 108.713 50.0446 109.13 50.4501C109.547 50.8514 109.755 51.3552 109.755 51.9613C109.755 52.5634 109.547 53.0672 109.13 53.4726ZM108.796 50.7634C108.47 50.4357 108.074 50.2719 107.608 50.2719C107.142 50.2719 106.746 50.4357 106.42 50.7634C106.094 51.091 105.931 51.4903 105.931 51.9613C105.931 52.4324 106.094 52.8317 106.42 53.1594C106.746 53.4869 107.142 53.6508 107.608 53.6508C108.074 53.6508 108.47 53.4869 108.796 53.1594C109.122 52.8317 109.285 52.4324 109.285 51.9613C109.285 51.4903 109.122 51.091 108.796 50.7634Z" fill="white"/>
<path d="M115.078 49.9102H115.74C116.186 49.9102 116.52 49.986 116.742 50.1375C117.044 50.3382 117.194 50.6412 117.194 51.0467C117.194 51.362 117.097 51.6242 116.903 51.833C116.713 52.042 116.464 52.1566 116.154 52.1771L117.467 54.0079H116.909L115.653 52.2139H115.535V54.0079H115.078V49.9102ZM115.535 50.3402V51.8085H115.826C116.111 51.8085 116.334 51.743 116.495 51.6119C116.656 51.4808 116.736 51.2965 116.736 51.059C116.736 50.7804 116.627 50.5798 116.408 50.457C116.268 50.3791 116.07 50.3402 115.814 50.3402H115.535Z" fill="white"/>
<path d="M125.434 54.0084L124.951 52.8535H123.194L122.699 54.0084H122.191L124.006 49.9062H124.09H124.174L125.941 54.0084H125.434ZM123.373 52.4234H124.772L124.078 50.7832L123.373 52.4234Z" fill="white"/>
<path d="M132.752 50.3402H131.75V54.0079H131.292V50.3402H130.289V49.9102H132.752V50.3402Z" fill="white"/>
<path d="M137.852 49.9102H138.31V54.0079H137.852V49.9102Z" fill="white"/>
<path d="M147.31 53.4726C146.898 53.878 146.39 54.0807 145.788 54.0807C145.186 54.0807 144.676 53.878 144.259 53.4726C143.847 53.0672 143.641 52.5634 143.641 51.9613C143.641 51.3552 143.849 50.8514 144.265 50.4501C144.682 50.0446 145.189 49.8418 145.788 49.8418C146.386 49.8418 146.895 50.0446 147.31 50.4501C147.726 50.8514 147.935 51.3552 147.935 51.9613C147.935 52.5634 147.726 53.0672 147.31 53.4726ZM146.976 50.7634C146.65 50.4357 146.254 50.2719 145.788 50.2719C145.322 50.2719 144.926 50.4357 144.6 50.7634C144.274 51.091 144.111 51.4903 144.111 51.9613C144.111 52.4324 144.274 52.8317 144.6 53.1594C144.926 53.4869 145.322 53.6508 145.788 53.6508C146.254 53.6508 146.65 53.4869 146.976 53.1594C147.302 52.8317 147.464 52.4324 147.464 51.9613C147.464 51.4903 147.302 51.091 146.976 50.7634Z" fill="white"/>
<path d="M153.716 54.0079H153.258V49.9102H153.716L156.475 53.2382V49.9102H156.933V54.0079H156.475L153.716 50.6734V54.0079Z" fill="white"/>
</g>
<defs>
<clipPath id="clip0_112_7467">
<rect width="157" height="58" fill="white"/>
</clipPath>
</defs>
</svg>
