<svg width="16" height="16" viewBox="0 0 16 16" fill="none" xmlns="http://www.w3.org/2000/svg">
<path fill-rule="evenodd" clip-rule="evenodd" d="M7.99997 8.00006C9.57957 6.3782 9.96995 3.93883 8.97538 1.90502C8.91315 1.75696 8.94152 1.58631 9.04831 1.46635C9.1551 1.34639 9.32131 1.29845 9.47559 1.34312C10.6635 1.64933 11.7479 2.26793 12.6161 3.1347C15.3031 5.75244 15.3599 10.0527 12.7428 12.7404C10.0553 15.3577 5.75508 15.3013 3.13711 12.6145C2.26984 11.7469 1.6509 10.6627 1.3447 9.47484C1.29981 9.32036 1.34781 9.15384 1.46805 9.04696C1.58828 8.94009 1.75929 8.91194 1.90743 8.97463C3.94035 9.96874 6.3786 9.57871 7.99997 8.00006Z" stroke="#1C1C1C" stroke-width="1.5" stroke-linecap="round" stroke-linejoin="round"/>
</svg>
