<svg width="18" height="18" viewBox="0 0 18 18" fill="none" xmlns="http://www.w3.org/2000/svg">
<path d="M16.5023 9.83363V8.99995C16.5023 5.77694 13.8896 3.16419 10.6666 3.16419H9.8329C9.09592 3.16419 8.4715 2.68649 8.25057 2.02371C8.14136 1.69441 7.80205 1.49683 7.45608 1.49683H6.60822C6.06466 1.49683 5.66033 2.01204 5.79622 2.53809C6.07717 3.62771 6.78913 4.54309 7.73786 5.09582C7.99213 5.24422 8.16554 5.49432 8.16554 5.78861C8.16554 7.0383 8.16554 10.3222 8.16554 10.3222C8.16554 10.9733 7.63782 11.501 6.98671 11.501C6.67408 11.501 6.37396 11.3768 6.15303 11.1558L5.52194 10.5248C4.84249 9.8453 3.79038 9.62354 2.84499 10.0579C1.99463 10.4481 1.49609 11.3509 1.49609 12.2863V14.8357C1.49609 15.526 2.05633 16.0862 2.74661 16.0862C3.4369 16.0862 3.99714 15.526 3.99714 14.8357V13.1684L5.75287 14.9241C6.76412 15.9353 8.13469 16.5031 9.56445 16.5031V16.5031C13.396 16.5031 16.5023 13.3968 16.5023 9.56519" stroke="#1C1C1C" stroke-width="1.5" stroke-linecap="round" stroke-linejoin="round"/>
</svg>
