<svg width="142" height="142" viewBox="0 0 142 142" fill="none" xmlns="http://www.w3.org/2000/svg">
<path d="M130.809 75.6487L136.712 73.0812C136.797 73.0404 136.821 73.0029 136.832 72.9134L136.903 72.2774C136.91 72.2178 136.874 72.1736 136.815 72.1669L130.057 71.4083C129.998 71.4016 129.953 71.4369 129.947 71.4966L129.886 72.0332C129.88 72.0928 129.915 72.137 129.975 72.1437L135.5 72.764C135.55 72.7695 135.555 72.8104 135.513 72.8258L129.61 75.3933C129.526 75.4241 129.5 75.4716 129.49 75.561L129.419 76.197C129.412 76.2567 129.448 76.3009 129.507 76.3076L136.265 77.0661C136.324 77.0728 136.369 77.0375 136.375 76.9779L136.436 76.4413C136.442 76.3816 136.407 76.3374 136.347 76.3307L130.822 75.7105C130.772 75.7049 130.767 75.6641 130.809 75.6487Z" fill="white"/>
<path d="M133.999 89.681L134.371 88.6035C134.391 88.5468 134.388 88.493 134.31 88.4447L128.574 84.2836C128.514 84.2419 128.467 84.2571 128.444 84.3233L128.261 84.8526C128.241 84.9093 128.253 84.9664 128.294 85.0016L129.568 85.9073C129.618 85.9458 129.628 85.9807 129.608 86.0374L128.668 88.7595C128.648 88.8162 128.619 88.8381 128.556 88.8374L126.995 88.7634C126.941 88.766 126.896 88.8034 126.876 88.8602L126.694 89.3895C126.671 89.4556 126.699 89.497 126.771 89.501L133.852 89.768C133.944 89.7785 133.979 89.7377 133.999 89.681ZM130.29 86.4212L133.519 88.7429C133.544 88.7621 133.56 88.7781 133.547 88.8159L133.481 89.0049C133.468 89.0427 133.446 89.0457 133.414 89.0453L129.441 88.8786C129.4 88.875 129.388 88.8496 129.397 88.8212L130.22 86.4394C130.23 86.411 130.256 86.3987 130.29 86.4212Z" fill="white"/>
<path d="M128.271 103.073L130.423 99.3045C130.453 99.2524 130.438 99.1979 130.386 99.1681L129.943 98.9152C129.891 98.8855 129.837 98.9004 129.807 98.9525L128.939 100.472C128.924 100.498 128.897 100.506 128.871 100.491L123.539 97.4461C123.487 97.4163 123.432 97.4312 123.402 97.4833L123.135 97.9522C123.105 98.0043 123.12 98.0589 123.172 98.0887L128.504 101.133C128.53 101.148 128.537 101.176 128.522 101.202L127.655 102.721C127.625 102.773 127.64 102.828 127.692 102.858L128.135 103.111C128.187 103.14 128.241 103.125 128.271 103.073Z" fill="white"/>
<path d="M117.534 106.534C116.548 107.691 116.775 109.014 117.94 110.006L121.373 112.93C121.419 112.969 121.475 112.964 121.514 112.919L121.864 112.508C121.903 112.462 121.899 112.406 121.853 112.367L118.473 109.488C117.559 108.71 117.369 107.838 118.082 107.001C118.795 106.163 119.686 106.213 120.599 106.991L123.98 109.869C124.025 109.908 124.082 109.904 124.121 109.858L124.471 109.447C124.51 109.401 124.505 109.345 124.459 109.306L121.026 106.382C119.861 105.39 118.519 105.377 117.534 106.534Z" fill="white"/>
<path d="M110.533 114.702L111.836 116.387C111.854 116.41 111.85 116.439 111.827 116.457L111.036 117.068C110.972 117.117 110.95 117.122 110.86 117.103L108.25 116.441C108.168 116.416 108.13 116.433 108.067 116.482L107.513 116.91C107.45 116.959 107.456 117.017 107.539 117.041L110.236 117.686C110.313 117.703 110.315 117.739 110.272 117.798C109.658 118.639 109.547 119.672 110.281 120.622C111.199 121.809 112.593 121.83 113.717 120.962L115.259 119.769C115.307 119.732 115.314 119.676 115.277 119.629L111.118 114.249C111.082 114.201 111.026 114.194 110.978 114.231L110.551 114.561C110.503 114.598 110.496 114.654 110.533 114.702ZM114.279 119.629L113.338 120.357C112.562 120.957 111.612 121.084 110.897 120.159C110.181 119.233 110.544 118.346 111.319 117.746L112.261 117.019C112.285 117 112.313 117.004 112.331 117.028L114.288 119.559C114.307 119.583 114.303 119.611 114.279 119.629Z" fill="white"/>
<path d="M101.881 129.034L102.908 128.539C102.962 128.513 102.999 128.474 102.978 128.384L101.894 121.381C101.881 121.309 101.837 121.286 101.774 121.317L101.269 121.56C101.215 121.586 101.183 121.634 101.187 121.688L101.441 123.23C101.449 123.293 101.431 123.324 101.376 123.35L98.7814 124.599C98.7273 124.625 98.6916 124.62 98.6476 124.575L97.6006 123.414C97.5609 123.378 97.5028 123.372 97.4488 123.398L96.9442 123.641C96.8811 123.672 96.8714 123.721 96.9198 123.775L101.716 128.991C101.773 129.063 101.827 129.06 101.881 129.034ZM101.584 124.105L102.209 128.032C102.213 128.064 102.213 128.086 102.177 128.103L101.997 128.19C101.961 128.207 101.943 128.194 101.921 128.171L99.2414 125.232C99.2151 125.201 99.2244 125.174 99.2515 125.161L101.522 124.068C101.549 124.055 101.576 124.064 101.584 124.105Z" fill="white"/>
<path d="M91.773 133.36L90.0193 126.791C90.0039 126.733 89.9549 126.704 89.8969 126.72L86.7279 127.566C86.6699 127.581 86.6416 127.63 86.6571 127.688L86.7886 128.181C86.8041 128.239 86.853 128.267 86.911 128.252L89.4134 127.584C89.4424 127.576 89.4669 127.59 89.4746 127.619L91.0581 133.551C91.0735 133.609 91.1225 133.638 91.1805 133.622L91.7022 133.483C91.7602 133.467 91.7885 133.418 91.773 133.36Z" fill="white"/>
<path d="M72.0469 133.808L71.886 136.783C71.8828 136.843 71.9205 136.885 71.9805 136.889L72.5197 136.918C72.5796 136.921 72.6217 136.883 72.6249 136.823L72.9921 130.033C72.9953 129.973 72.9575 129.931 72.8976 129.928L72.3584 129.899C72.2985 129.896 72.2564 129.933 72.2532 129.993L72.0906 132.999C72.089 133.029 72.068 133.048 72.038 133.046L68.9425 132.879C68.9126 132.877 68.8937 132.856 68.8953 132.826L69.0578 129.82C69.0611 129.761 69.0233 129.718 68.9634 129.715L68.4242 129.686C68.3643 129.683 68.3222 129.721 68.3189 129.78L67.9518 136.571C67.9485 136.63 67.9863 136.673 68.0462 136.676L68.5854 136.705C68.6453 136.708 68.6874 136.67 68.6907 136.611L68.8516 133.635C68.8532 133.605 68.8742 133.586 68.9042 133.588L71.9997 133.755C72.0296 133.757 72.0485 133.778 72.0469 133.808Z" fill="white"/>
<path d="M58.997 135.743L60.7008 129.16C60.7158 129.102 60.6871 129.053 60.629 129.038L57.3278 128.184C57.2697 128.169 57.221 128.197 57.206 128.255L57.0782 128.749C57.0631 128.807 57.0918 128.856 57.1499 128.871L59.7832 129.553C59.8122 129.56 59.8266 129.584 59.819 129.614L59.2177 131.937C59.2102 131.966 59.1858 131.98 59.1568 131.973L56.5235 131.291C56.4655 131.276 56.4167 131.305 56.4017 131.363L56.2739 131.857C56.2589 131.915 56.2876 131.964 56.3457 131.979L58.9789 132.66C59.0079 132.668 59.0223 132.692 59.0148 132.721L58.446 134.919C58.4385 134.948 58.4141 134.962 58.3851 134.955L55.7518 134.273C55.6938 134.258 55.645 134.287 55.63 134.345L55.5022 134.839C55.4872 134.897 55.5159 134.945 55.5739 134.96L58.8752 135.815C58.9333 135.83 58.982 135.801 58.997 135.743Z" fill="white"/>
<path d="M44.6544 131.373L45.6798 131.872C45.7337 131.898 45.7875 131.902 45.8448 131.829L50.6606 126.631C50.7092 126.577 50.6997 126.528 50.6367 126.497L50.133 126.253C50.079 126.227 50.0209 126.232 49.9811 126.268L48.9298 127.425C48.8856 127.47 48.8499 127.475 48.7959 127.449L46.2055 126.19C46.1515 126.164 46.1333 126.133 46.1415 126.07L46.4013 124.529C46.4051 124.475 46.3733 124.426 46.3193 124.4L45.8156 124.155C45.7526 124.125 45.7082 124.147 45.6956 124.219L44.5855 131.218C44.5642 131.307 44.6004 131.347 44.6544 131.373ZM48.3335 128.08L45.6431 131.009C45.621 131.031 45.6033 131.045 45.5673 131.028L45.3874 130.94C45.3514 130.923 45.3512 130.9 45.3553 130.869L45.9949 126.944C46.0034 126.904 46.0301 126.894 46.0571 126.907L48.3237 128.009C48.3507 128.022 48.36 128.048 48.3335 128.08Z" fill="white"/>
<path d="M35.0011 126.152L39.0612 120.697C39.097 120.649 39.0888 120.593 39.0407 120.557L36.4095 118.599C36.3614 118.563 36.3054 118.571 36.2696 118.619L35.9651 119.028C35.9293 119.076 35.9375 119.132 35.9856 119.168L38.0633 120.715C38.0873 120.733 38.0914 120.761 38.0735 120.785L34.4075 125.71C34.3717 125.758 34.3799 125.814 34.428 125.85L34.8612 126.172C34.9093 126.208 34.9653 126.2 35.0011 126.152Z" fill="white"/>
<path d="M23.7234 116.851L26.7246 119.986C26.7661 120.029 26.8227 120.03 26.866 119.989L27.2344 119.636C27.2777 119.595 27.279 119.538 27.2375 119.495L26.0273 118.231C26.0066 118.209 26.0072 118.181 26.0289 118.16L30.4641 113.914C30.5074 113.873 30.5087 113.816 30.4672 113.773L30.0938 113.383C30.0523 113.339 29.9957 113.338 29.9524 113.38L25.5171 117.625C25.4955 117.646 25.4672 117.646 25.4464 117.624L24.2363 116.36C24.1948 116.316 24.1382 116.315 24.0949 116.357L23.7265 116.709C23.6831 116.751 23.6819 116.807 23.7234 116.851Z" fill="white"/>
<path d="M20.8922 109.155L18.3957 110.782C18.3455 110.815 18.3338 110.87 18.3666 110.92L18.6614 111.373C18.6942 111.423 18.7496 111.435 18.7998 111.402L24.4965 107.689C24.5467 107.656 24.5584 107.6 24.5256 107.55L24.2307 107.098C24.198 107.048 24.1426 107.036 24.0924 107.069L21.5708 108.712C21.5456 108.729 21.518 108.723 21.5016 108.698L19.8088 106.101C19.7924 106.076 19.7982 106.048 19.8233 106.032L22.3449 104.388C22.3952 104.355 22.4069 104.3 22.3741 104.25L22.0792 103.797C22.0465 103.747 21.9911 103.735 21.9409 103.768L16.2442 107.481C16.194 107.514 16.1823 107.569 16.2151 107.62L16.5099 108.072C16.5427 108.122 16.598 108.134 16.6483 108.101L19.1448 106.474C19.1699 106.458 19.1976 106.463 19.214 106.488L20.9068 109.085C20.9232 109.111 20.9173 109.138 20.8922 109.155Z" fill="white"/>
<path d="M10.9312 83.3324C10.8872 83.0559 10.6108 82.8467 10.3245 82.8923C10.0381 82.9379 9.84034 83.2225 9.88436 83.499C9.93151 83.7953 10.2063 83.9946 10.4927 83.949C10.779 83.9034 10.9783 83.6287 10.9312 83.3324Z" fill="white"/>
<path d="M13.4671 58.4709C13.8092 57.2271 13.5364 56.032 12.741 55.1909C12.7007 55.1487 12.6472 55.1547 12.605 55.195L12.221 55.5353C12.1639 55.5922 12.148 55.6501 12.2118 55.7195C12.8839 56.4437 13.0231 57.3324 12.7632 58.2773C12.3415 59.8104 10.8988 60.6062 9.2018 60.1395C7.50482 59.6727 6.67208 58.2509 7.09378 56.7178C7.35369 55.7729 7.92792 55.0804 8.87575 54.8018C8.96615 54.7748 8.98206 54.717 8.96206 54.6389L8.80613 54.15C8.79047 54.0939 8.74756 54.0613 8.6914 54.077C7.57772 54.3929 6.73205 55.2804 6.38992 56.5242C5.86214 58.443 6.89565 60.3037 8.99758 60.8819C11.0995 61.4601 12.9393 60.3897 13.4671 58.4709Z" fill="white"/>
<path d="M17.8254 45.6129C18.7994 43.8775 18.2173 41.7275 16.3773 40.6947C14.5374 39.6619 12.3988 40.2849 11.4247 42.0202C10.4507 43.7555 11.0328 45.9056 12.8728 46.9384C14.7127 47.9711 16.8513 47.3482 17.8254 45.6129ZM17.1888 45.2556C16.4008 46.6595 14.7283 47.0854 13.2545 46.2582C11.7808 45.431 11.2733 43.7815 12.0613 42.3775C12.8493 40.9735 14.5218 40.5477 15.9955 41.3749C17.4693 42.2021 17.9768 43.8516 17.1888 45.2556Z" fill="white"/>
<path d="M23.9443 34.9933L22.3688 33.56C22.3466 33.5398 22.3452 33.5116 22.3654 33.4894L23.0384 32.7497C23.0922 32.6905 23.113 32.6824 23.2052 32.6851L25.8904 32.8838C25.9759 32.894 26.0102 32.8711 26.064 32.8119L26.5351 32.2941C26.5889 32.2349 26.5721 32.1791 26.4867 32.169L23.718 32.0026C23.64 31.9992 23.6312 31.9642 23.6636 31.899C24.122 30.9641 24.0517 29.9268 23.164 29.1193C22.0545 28.1099 20.6774 28.3307 19.7219 29.3811L18.4097 30.8236C18.3693 30.8679 18.372 30.9244 18.4164 30.9648L23.4464 35.5407C23.4908 35.5811 23.5473 35.5784 23.5876 35.5341L23.951 35.1346C23.9914 35.0902 23.9887 35.0337 23.9443 34.9933ZM19.3992 30.7909L20.2 29.9107C20.8594 29.1858 21.773 28.8948 22.6385 29.6821C23.504 30.4695 23.3005 31.4064 22.641 32.1313L21.8402 33.0116C21.82 33.0338 21.7918 33.0351 21.7696 33.0149L19.4025 30.8616C19.3803 30.8414 19.379 30.8131 19.3992 30.7909Z" fill="white"/>
<path d="M29.0997 19.982L27.7886 20.9504C27.7404 20.9861 27.732 21.042 27.7676 21.0903L31.8078 26.5599C31.8434 26.6082 31.8993 26.6166 31.9476 26.581L32.382 26.2601C32.4302 26.2245 32.4386 26.1685 32.403 26.1203L31.2444 24.5518C31.2266 24.5276 31.2308 24.4997 31.2549 24.4818L32.011 23.9233C33.3463 22.9371 33.5701 21.5907 32.6789 20.3841C31.7877 19.1776 30.435 18.9957 29.0997 19.982ZM30.7632 23.9002L28.755 21.1815C28.7371 21.1574 28.7413 21.1294 28.7655 21.1116L29.4653 20.5947C30.4546 19.8639 31.3623 19.9145 32.0515 20.8476C32.7407 21.7806 32.5222 22.663 31.5329 23.3938L30.8331 23.9107C30.809 23.9286 30.781 23.9244 30.7632 23.9002Z" fill="white"/>
<path d="M43.7206 18.8193C45.5417 18.0169 46.3676 15.9482 45.5167 14.0173C44.6658 12.0865 42.5818 11.3001 40.7607 12.1026C38.9397 12.9051 38.1138 14.9738 38.9647 16.9046C39.8155 18.8355 41.8996 19.6218 43.7206 18.8193ZM43.4262 18.1513C41.953 18.8006 40.3599 18.1366 39.6784 16.5901C38.9969 15.0436 39.5818 13.4199 41.0551 12.7706C42.5284 12.1214 44.1214 12.7854 44.8029 14.3319C45.4844 15.8784 44.8995 17.5021 43.4262 18.1513Z" fill="white"/>
<path d="M55.1217 13.9581L54.7307 11.8643C54.7251 11.8348 54.7411 11.8115 54.7706 11.806L55.7536 11.6224C55.8323 11.6077 55.8538 11.6138 55.9256 11.6716L57.9466 13.4508C58.0086 13.5104 58.0498 13.5129 58.1284 13.4982L58.8165 13.3697C58.8951 13.355 58.9155 13.3004 58.8535 13.2407L56.7465 11.4369C56.6863 11.3871 56.7004 11.354 56.7656 11.3214C57.6953 10.8528 58.2654 9.98333 58.0451 8.80373C57.7697 7.32923 56.5385 6.67414 55.1426 6.93486L53.2257 7.29288C53.1668 7.3039 53.1348 7.35056 53.1458 7.40954L54.3943 14.0939C54.4053 14.1529 54.452 14.1849 54.511 14.1739L55.0418 14.0747C55.1008 14.0637 55.1327 14.0171 55.1217 13.9581ZM54.0344 7.86413L55.2041 7.64564C56.1675 7.46571 57.0715 7.78516 57.2863 8.93527C57.5011 10.0854 56.7734 10.7096 55.81 10.8895L54.6403 11.108C54.6108 11.1135 54.5874 11.0976 54.5819 11.0681L53.9944 7.92246C53.9889 7.89297 54.0049 7.86964 54.0344 7.86413Z" fill="white"/>
<path d="M69.7045 5.09624L68.565 5.06544C68.505 5.06382 68.4545 5.08246 68.432 5.17189L66.1896 11.8938C66.1677 11.9632 66.1966 12.004 66.2666 12.0059L66.8264 12.021C66.8864 12.0226 66.9372 11.994 66.9585 11.9446L67.4389 10.457C67.4605 10.3976 67.491 10.3784 67.551 10.38L70.43 10.4578C70.4899 10.4594 70.5194 10.4802 70.5378 10.5407L70.9371 12.0521C70.9557 12.1026 71.0049 12.1339 71.0649 12.1356L71.6247 12.1507C71.6946 12.1526 71.7257 12.1134 71.7076 12.0429L69.8315 5.20971C69.814 5.1192 69.7645 5.09786 69.7045 5.09624ZM67.7118 9.61405L68.9543 5.83624C68.9651 5.80652 68.9756 5.7868 69.0156 5.78788L69.2155 5.79328C69.2555 5.79436 69.265 5.81463 69.2742 5.84489L70.3108 9.68429C70.3197 9.72455 70.2992 9.744 70.2692 9.74319L67.7501 9.67511C67.7201 9.6743 67.7007 9.65377 67.7118 9.61405Z" fill="white"/>
<path d="M83.9408 6.45013L79.6974 5.53954C79.6387 5.52695 79.5912 5.55767 79.5786 5.61634L79.4716 6.11498C79.459 6.17365 79.4898 6.22115 79.5484 6.23374L81.2595 6.60091C81.2888 6.60721 81.3042 6.63096 81.2979 6.66029L80.0096 12.6636C79.997 12.7223 80.0277 12.7698 80.0864 12.7824L80.6144 12.8957C80.6731 12.9083 80.7206 12.8775 80.7331 12.8189L82.0214 6.81555C82.0277 6.78622 82.0514 6.77086 82.0808 6.77715L83.7918 7.14432C83.8505 7.15691 83.898 7.1262 83.9106 7.06753L84.0176 6.56888C84.0302 6.51022 83.9995 6.46272 83.9408 6.45013Z" fill="white"/>
<path d="M91.6586 8.46331L91.1531 8.2736C91.0969 8.25253 91.0454 8.27592 91.0243 8.3321L88.6354 14.6987C88.6143 14.7548 88.6377 14.8063 88.6939 14.8274L89.1995 15.0171C89.2557 15.0382 89.3072 15.0148 89.3283 14.9586L91.7171 8.59207C91.7382 8.53589 91.7148 8.48439 91.6586 8.46331Z" fill="white"/>
<path d="M98.0728 18.8695C99.7711 19.9067 101.941 19.4041 103.041 17.6034C104.141 15.8027 103.597 13.6427 101.899 12.6054C100.2 11.5681 98.0303 12.0707 96.9305 13.8714C95.8307 15.6721 96.3745 17.8322 98.0728 18.8695ZM98.4533 18.2465C97.0793 17.4073 96.7153 15.7202 97.5962 14.278C98.4771 12.8357 100.144 12.3892 101.518 13.2284C102.892 14.0676 103.256 15.7546 102.375 17.1969C101.494 18.6392 99.8273 19.0857 98.4533 18.2465Z" fill="white"/>
<path d="M111.78 26.8625L113.456 20.647C113.477 20.5551 113.463 20.5127 113.399 20.449L112.947 19.9965C112.904 19.954 112.848 19.954 112.805 19.9965L107.997 24.8048C107.955 24.8472 107.955 24.9038 107.997 24.9462L108.379 25.3281C108.421 25.3705 108.478 25.3705 108.52 25.3281L112.452 21.3965C112.487 21.3612 112.523 21.3824 112.508 21.4248L110.833 27.6403C110.804 27.7252 110.826 27.7747 110.889 27.8383L111.342 28.2908C111.384 28.3333 111.441 28.3333 111.483 28.2908L116.292 23.4825C116.334 23.4401 116.334 23.3835 116.292 23.3411L115.91 22.9593C115.867 22.9168 115.811 22.9168 115.768 22.9593L111.837 26.8908C111.801 26.9261 111.766 26.9049 111.78 26.8625Z" fill="white"/>
<path d="M127.093 46.839C127.192 47.1012 127.504 47.2509 127.776 47.149C128.047 47.0472 128.184 46.7288 128.086 46.4666C127.98 46.1858 127.671 46.0454 127.4 46.1472C127.128 46.2491 126.988 46.5581 127.093 46.839Z" fill="white"/>
</svg>
